<?xml version="1.0" encoding="utf-8"?>
<!-- Generator: Adobe Illustrator 18.1.1, SVG Export Plug-In . SVG Version: 6.00 Build 0)  -->
<svg version="1.1" id="arrows" xmlns="http://www.w3.org/2000/svg" xmlns:xlink="http://www.w3.org/1999/xlink" x="0px" y="0px"
	 viewBox="0 -150 612 1092" enable-background="new 0 -150 612 1092" xml:space="preserve">
<path fill="#0B9BD8" d="M300.5-122.9v0.3c-1,2.8-5.8,16.6-6.3,42.5l-1,62.5l0.8,846.2l-1,62.5c-0.5,25.9,4,40.1,4.8,42.8v0.3v-0.3
	v0.3v-0.3c1-2.8,5.8-16.6,6.3-42.5l1-62.5l-0.8-846.2l1-62.5c0.5-25.9-4-40.1-4.8-42.8V-122.9L300.5-122.9L300.5-122.9z"/>
<path fill="#0B9BD8" d="M369.7-53l-15.3-20.8L300-147l-46.4,78.7l-13,22.3c-5.5,9.3-4.5,16.5-4.3,18.1v0.3h0.3v0.3v-0.3
	c1.5-0.5,8.3-3.3,13.8-12.3l13-22.3l37.6-63.9l44.4,59.4L360.7-46c6.3,8.5,13.5,10.5,15,10.8l0.3,0.3v-0.3h0.3l-0.3-0.3
	C375.9-36.9,375.9-44.5,369.7-53z"/>
</svg>
