<?xml version="1.0" encoding="utf-8"?>
<!-- Generator: Adobe Illustrator 18.1.1, SVG Export Plug-In . SVG Version: 6.00 Build 0)  -->
<svg version="1.1" id="arrows" xmlns="http://www.w3.org/2000/svg" xmlns:xlink="http://www.w3.org/1999/xlink" x="0px" y="0px"
	 viewBox="0 0 55.8 315.9" enable-background="new 0 0 55.8 315.9" xml:space="preserve">
<g>
	<path fill="#0B9BD8" d="M25.7,9.6l0,0.1c-0.4,0.8-2.3,4.8-2.5,12.3l-0.4,18.1l0.3,245l-0.4,18.1c-0.2,7.5,1.6,11.6,1.9,12.4l0,0.1
		l0-0.1l0,0.1l0-0.1c0.4-0.8,2.3-4.8,2.5-12.3l0.4-18.1l-0.3-245l0.4-18.1c0.2-7.5-1.6-11.6-1.9-12.4L25.7,9.6L25.7,9.6L25.7,9.6z"
		/>
	<path fill="#0B9BD8" d="M53.3,37.5l-6.1-8.3L25.5,0L7,31.4l-5.2,8.9c-2.2,3.7-1.8,6.6-1.7,7.2l0,0.1l0.1,0l0,0.1l0-0.1
		c0.6-0.2,3.3-1.3,5.5-4.9l5.2-8.9l15-25.5L43.6,32l6.1,8.3c2.5,3.4,5.4,4.2,6,4.3l0.1,0.1l0-0.1l0.1,0l-0.1-0.1
		C55.8,43.9,55.8,40.9,53.3,37.5z"/>
</g>
</svg>
