<?xml version="1.0" standalone="no"?>
<!DOCTYPE svg PUBLIC "-//W3C//DTD SVG 1.1//EN" "http://www.w3.org/Graphics/SVG/1.1/DTD/svg11.dtd" >
<svg xmlns="http://www.w3.org/2000/svg">
<metadata>Generated by IcoMoon</metadata>
<defs>
<font id="icomoon" horiz-adv-x="1024">
<font-face units-per-em="1024" ascent="960" descent="-64" />
<missing-glyph horiz-adv-x="1024" />
<glyph unicode="&#x20;" horiz-adv-x="512" d="" />
<glyph unicode="&#xe900;" glyph-name="sfdc-icon-1oclock" horiz-adv-x="1023" d="M511.467 959.645c-282.373 0-511.467-229.095-511.467-511.467s229.095-511.467 511.467-511.467c282.373 0 511.467 229.095 511.467 511.467s-229.095 511.467-511.467 511.467zM758.676 658.092l-193.931-291.607c-12.076-18.114-32.322-28.77-53.278-28.77-6.038 0-12.431 0.71-18.47 2.841-26.994 8.169-45.464 33.032-45.464 61.447v412.015c0 35.519 28.77 64.289 64.289 64.289s64.289-28.77 64.289-64.289v-199.614l76.010 114.725c19.535 29.48 59.671 37.65 88.796 17.759 29.48-19.535 37.65-59.316 17.759-88.796z" />
<glyph unicode="&#xe901;" glyph-name="sfdc-icon-5oclock" horiz-adv-x="1023" d="M511.467 959.645c-282.373 0-511.467-229.095-511.467-511.467s229.095-511.467 511.467-511.467c282.373 0 511.467 229.095 511.467 511.467s-229.095 511.467-511.467 511.467zM724.223 110.396c-11.366-8.169-24.508-12.431-37.65-12.431-19.89 0-39.426 9.235-51.857 26.284l-175.106 240.105c-7.814 11.011-12.431 24.153-12.431 37.65v412.015c0 35.519 28.77 64.289 64.289 64.289s64.289-28.77 64.289-64.289v-391.059l162.675-223.057c20.601-28.77 14.563-68.906-14.207-89.507z" />
<glyph unicode="&#xe902;" glyph-name="sfdc-icon-8oclock" horiz-adv-x="1023" d="M511.467 959.645c-282.373 0-511.467-229.095-511.467-511.467s229.095-511.467 511.467-511.467 511.467 229.095 511.467 511.467-229.095 511.467-511.467 511.467zM575.756 402.003c0-22.732-12.076-44.043-31.967-55.409l-267.455-156.282c-10.3-6.038-21.311-8.88-32.322-8.88-22.022 0-43.688 11.366-55.409 31.967-17.759 30.546-7.459 69.972 23.087 87.731l235.843 137.457v375.431c0 35.519 28.77 64.289 64.289 64.289s64.289-28.77 64.289-64.289v-412.015z" />
<glyph unicode="&#xe903;" glyph-name="sfdc-icon-alarm" horiz-adv-x="1023" d="M511.467 959.645c-282.373 0-511.467-229.095-511.467-511.467s229.095-511.467 511.467-511.467 511.467 229.095 511.467 511.467-229.095 511.467-511.467 511.467zM511.467 720.96c48.66 0 63.933-33.743 62.513-34.453s-9.235 12.787-62.513 12.787-61.092-13.497-62.513-12.787c-1.421 0.71 13.852 34.453 62.513 34.453zM511.112 175.040c-42.622 0-77.786 26.284-83.824 61.092h168.003c-6.393-34.453-41.557-61.092-84.179-61.092zM783.895 251.405c-1.776-4.262-7.814-4.262-7.814-4.262h-529.227c0 0-5.683 0-7.814 4.262-2.131 4.617 1.776 9.59 1.776 9.59l116.501 154.506c0 0 0 59.671 0 158.058 0 103.359 126.091 104.425 154.151 104.425s154.151-1.066 154.151-104.425c0-98.386 0-158.058 0-158.058l116.501-154.506c0 0 3.907-4.617 1.776-9.59z" />
<glyph unicode="&#xe904;" glyph-name="sfdc-icon-calendar" horiz-adv-x="1023" d="M818.348 760.386v199.259h-136.391v-199.259h-340.978v199.259h-136.391v-199.259h-136.391v-823.675h886.543v823.675h-136.391zM818.348 73.102h-613.761v414.502h613.761v-414.502z" />
<glyph unicode="&#xe905;" glyph-name="sfdc-icon-closed-captioning" horiz-adv-x="1023" d="M947.99 802.298h-873.046c-41.202 0-74.944-33.743-74.944-74.944v-558.352c0-41.202 33.743-74.944 74.944-74.944h873.046c41.202 0 74.944 33.743 74.944 74.944v558.352c0 41.202-33.743 74.944-74.944 74.944zM422.316 284.792c-21.311-8.88-44.398-13.142-69.616-13.142-35.519 0-66.065 7.459-91.283 22.377s-44.398 35.874-57.185 62.157c-12.787 26.639-19.18 57.185-19.18 91.993 0 35.163 6.393 66.065 19.535 92.703 13.142 26.284 32.322 46.884 57.54 61.802 25.218 14.563 55.764 22.022 91.283 22.022 23.442 0 45.464-3.907 66.065-11.366s38.005-18.114 51.502-31.256l-34.808-39.781c-10.656 9.235-23.087 16.339-36.939 21.311s-28.415 7.459-43.333 7.459c-36.584 0-63.578-11.011-80.627-33.387-17.404-22.022-25.929-51.857-25.929-89.507 0-36.939 8.524-66.42 25.929-88.441s43.688-33.387 79.206-33.387c16.694 0 31.967 3.197 46.174 9.235s26.639 14.207 37.294 24.153l37.294-40.491c-13.852-13.852-31.612-25.573-52.923-34.453zM784.605 284.792c-21.311-8.88-44.398-13.142-69.616-13.142-35.519 0-66.065 7.459-91.283 22.377s-44.398 35.874-57.185 62.157c-12.787 26.639-19.18 57.185-19.18 91.993 0 35.163 6.393 66.065 19.535 92.703 13.142 26.284 32.322 46.884 57.54 61.802 25.218 14.563 55.764 22.022 91.283 22.022 23.442 0 45.464-3.907 66.065-11.366s38.005-18.114 51.502-31.256l-34.808-39.781c-10.656 9.235-23.087 16.339-36.939 21.311s-28.415 7.459-43.333 7.459c-36.584 0-63.578-11.011-80.627-33.387-17.404-22.022-25.929-51.857-25.929-89.507 0-36.939 8.524-66.42 25.929-88.441s43.688-33.387 79.206-33.387c16.694 0 31.967 3.197 46.174 9.235s26.639 14.207 37.294 24.153l37.294-40.491c-13.852-13.852-31.612-25.573-52.923-34.453z" />
<glyph unicode="&#xe906;" glyph-name="sfdc-icon-comments" horiz-adv-x="1023" d="M892.226 959.645h-761.518c-52.567 0-95.545-42.977-95.545-95.545v-595.646c0-52.567 42.977-95.545 95.545-95.545h636.137l220.925-236.198v927.39c0 52.567-42.977 95.545-95.545 95.545zM791.709 296.158h-569.362c-35.163 0-63.933 28.77-63.933 63.933s28.77 63.933 63.933 63.933h569.362c35.163 0 63.933-28.77 63.933-63.933s-28.77-63.933-63.933-63.933zM800.588 502.166h-569.362c-35.163 0-63.933 28.77-63.933 63.933s28.77 63.933 63.933 63.933h569.362c35.163 0 63.933-28.77 63.933-63.933s-28.77-63.933-63.933-63.933zM800.588 708.529h-569.362c-35.163 0-63.933 28.77-63.933 63.933s28.77 63.933 63.933 63.933h569.362c35.163 0 63.933-28.77 63.933-63.933s-28.77-63.933-63.933-63.933z" />
<glyph unicode="&#xe907;" glyph-name="sfdc-icon-down-arrow" horiz-adv-x="1023" d="M965.75 724.157l-445.403-445.403c-4.973-4.973-12.787-4.973-17.759 0l-445.403 445.403c-4.973 4.973-12.787 4.973-17.759 0l-35.519-35.519c-4.973-4.973-4.973-12.787 0-17.759l499.036-499.036c4.973-4.973 12.787-4.973 17.759 0l498.681 499.036c4.973 4.973 4.973 12.787 0 17.759l-35.519 35.519c-4.973 4.973-13.142 4.973-18.114 0z" />
<glyph unicode="&#xe908;" glyph-name="sfdc-icon-fullscreen-enter" d="M0 960v-426.656l186.176 186.176 186.176-186.176 62.048 62.048-186.176 186.176 186.176 186.176h-434.432zM1016.256 960v-426.656l-186.176 186.176-186.176-186.176-62.048 62.048 186.176 186.176-186.176 186.176h434.432zM0-64v426.656l186.176-186.176 186.176 186.176 62.048-62.048-186.176-186.176 186.176-186.176h-434.432zM1016.256-64v426.656l-186.176-186.176-186.176 186.176-62.048-62.048 186.176-186.176-186.176-186.176h434.432z" />
<glyph unicode="&#xe909;" glyph-name="sfdc-icon-fullscreen-exit" d="M529.036 407.319v-455.804l195.336 195.336 195.336-195.336 65.102 65.102-195.336 195.336 195.336 195.336h-455.804zM455.804 407.319v-455.804l-195.336 195.336-195.336-195.336-65.102 65.102 195.336 195.336-195.336 195.336h455.804zM529.036 488.681v455.804l195.336-195.336 195.336 195.336 65.102-65.102-195.336-195.336 195.336-195.336h-455.804zM455.804 488.681v455.804l-195.336-195.336-195.336 195.336-65.102-65.102 195.336-195.336-195.336-195.336h455.804z" />
<glyph unicode="&#xe90a;" glyph-name="sfdc-icon-fullscreen" horiz-adv-x="1023" d="M220.215 830.712h77.43c35.519 0 64.644 28.77 64.644 64.644s-29.125 64.289-64.644 64.289h-233.002c-35.874 0-64.644-29.125-64.644-64.644v-233.002c0-35.519 28.77-64.644 64.644-64.644s64.644 28.77 64.644 64.644v77.43l236.198-236.198c12.431-12.431 29.125-18.825 45.464-18.825s33.032 6.393 45.464 18.825c25.218 25.218 25.218 66.065 0 91.283l-236.198 236.198zM958.291 298.644c-35.519 0-64.644-28.77-64.644-64.644v-77.43l-236.198 236.198c-25.218 25.218-66.065 25.218-91.283 0s-25.218-66.065 0-91.283l236.198-236.198h-77.43c-35.519 0-64.644-28.77-64.644-64.644 0-35.519 28.77-64.644 64.644-64.644h233.002c35.519 0 64.644 28.77 64.644 64.644v233.002c0.355 36.229-28.415 64.999-64.289 64.999z" />
<glyph unicode="&#xe90b;" glyph-name="sfdc-icon-globe" horiz-adv-x="1023" d="M512 960c-281.6 0-512-230.4-512-512s230.4-512 512-512 512 230.4 512 512-230.4 512-512 512zM916.48 499.2h-133.12c-5.12 122.88-30.72 225.28-71.68 307.2 112.64-61.44 189.44-179.2 204.8-307.2zM460.8 837.12v-337.92h-117.76c10.24 158.72 61.44 286.72 117.76 337.92zM460.8 396.8v-337.92c-56.32 51.2-107.52 174.080-117.76 337.92h117.76zM563.2 58.88v337.92h117.76c-10.24-158.72-61.44-286.72-117.76-337.92zM563.2 499.2v337.92c56.32-51.2 107.52-174.080 117.76-337.92h-117.76zM312.32 806.4c-40.96-81.92-66.56-184.32-71.68-307.2h-133.12c15.36 128 92.16 245.76 204.8 307.2zM107.52 396.8h133.12c5.12-122.88 30.72-225.28 71.68-307.2-112.64 61.44-189.44 179.2-204.8 307.2zM711.68 89.6c40.96 81.92 66.56 184.32 71.68 307.2h133.12c-15.36-128-92.16-245.76-204.8-307.2z" />
<glyph unicode="&#xe90c;" glyph-name="sfdc-icon-grid" horiz-adv-x="1023" d="M331.033 501.1h-203.166c-70.327 0-127.867 57.54-127.867 127.867v203.166c0 70.327 57.54 127.867 127.867 127.867h203.166c70.327 0 127.867-57.54 127.867-127.867v-203.166c0-70.327-57.54-127.867-127.867-127.867zM895.423 501.1h-203.166c-70.327 0-127.867 57.54-127.867 127.867v203.166c0 70.327 57.54 127.867 127.867 127.867h203.166c70.327 0 127.867-57.54 127.867-127.867v-203.166c0-70.327-57.54-127.867-127.867-127.867zM331.033-63.645h-203.166c-70.327 0-127.867 57.54-127.867 127.867v203.166c0 70.327 57.54 127.867 127.867 127.867h203.166c70.327 0 127.867-57.54 127.867-127.867v-203.166c0-70.327-57.54-127.867-127.867-127.867zM895.423-63.645h-203.166c-70.327 0-127.867 57.54-127.867 127.867v203.166c0 70.327 57.54 127.867 127.867 127.867h203.166c70.327 0 127.867-57.54 127.867-127.867v-203.166c0-70.327-57.54-127.867-127.867-127.867z" />
<glyph unicode="&#xe90d;" glyph-name="sfdc-icon-hamburger" horiz-adv-x="1023" d="M0 858.062h1022.934v-189.314h-1022.934v189.314zM0 542.657h1022.934v-189.314h-1022.934v189.314zM0 227.252h1022.934v-189.314h-1022.934v189.314z" />
<glyph unicode="&#xe90e;" glyph-name="sfdc-icon-hd" horiz-adv-x="1023" d="M222.701 725.222l-40.136-217.018h199.969l40.136 217.018h120.053l-103.004-554.445h-120.053l45.819 234.422h-199.969l-45.819-234.422h-119.698l103.004 554.445c0 0 119.698 0 119.698 0zM588.542 719.539c45.819 5.683 97.321 11.366 154.151 11.366 85.6 0 154.151-17.049 205.652-62.868 45.819-40.136 74.234-91.283 74.234-171.555 0-108.687-45.819-199.969-114.37-257.154-62.868-51.502-148.468-74.234-268.52-74.234-68.551 0-125.736 5.683-154.151 11.366l103.004 543.079zM622.995 262.416c11.366 0 28.415-5.683 51.502-5.683 62.868 0 120.053 22.732 159.834 62.868 40.136 45.819 57.185 103.004 57.185 165.872 0 85.6-51.502 137.102-148.468 137.102-22.732 0-40.136 0-51.502-5.683l-68.551-354.475z" />
<glyph unicode="&#xe90f;" glyph-name="sfdc-icon-login" horiz-adv-x="1023" d="M511.467-63.29c-282.017 0-511.467 229.45-511.467 511.467s229.45 511.467 511.467 511.467c282.017 0 511.467-229.45 511.467-511.467s-229.45-511.467-511.467-511.467zM511.467 902.815c-250.761 0-454.638-203.877-454.638-454.638s203.877-454.638 454.638-454.638c250.761 0 454.638 203.877 454.638 454.638s-203.877 454.638-454.638 454.638zM284.148 164.029v111.173c0 79.206 40.846 151.309 105.845 192.155-39.426 34.808-63.223 85.245-63.223 139.233 0 101.938 82.758 184.696 184.696 184.696s184.696-82.758 184.696-184.696c0-54.343-23.797-104.78-63.223-139.233 64.999-40.846 105.845-112.949 105.845-192.155v-111.173h-454.638zM340.978 221.214h340.978v53.988c0 73.523-44.043 135.326-113.659 158.768v56.83c46.174 20.601 71.037 65.354 71.037 116.146 0 70.682-57.185 127.867-127.867 127.867s-127.867-57.185-127.867-127.867c0-50.436 24.863-95.545 71.037-116.146v-56.83c-69.616-23.442-113.659-85.245-113.659-158.768v-53.988z" />
<glyph unicode="&#xe910;" glyph-name="sfdc-icon-magnifying-glass" horiz-adv-x="1023" d="M724.579 323.863l299.421-299.421-88.441-88.441-299.421 299.421c-179.014-129.998-429.419-90.572-559.417 88.441s-90.572 429.419 88.441 559.417 429.419 90.572 559.417-88.441c101.938-140.298 101.938-330.323 0-470.976zM400.649 284.082c152.019 0 275.269 123.249 275.269 275.269s-123.249 275.269-275.269 275.269-275.624-123.249-275.624-275.269 123.605-275.269 275.624-275.269z" />
<glyph unicode="&#xe911;" glyph-name="sfdc-icon-minus" horiz-adv-x="1023" d="M68.196 379.627c-37.65 0-68.196 30.546-68.196 68.551s30.546 68.196 68.196 68.196l443.272 1.066 443.272-1.066c37.65 0 68.196-30.546 68.196-68.196s-30.546-68.196-68.196-68.196l-443.272 0.71-443.272-1.066z" />
<glyph unicode="&#xe912;" glyph-name="sfdc-icon-offsite" horiz-adv-x="1023" d="M998.071 938.334h-714.278c-4.973 0-8.88-3.907-8.88-8.88v-239.75h-250.051c-4.973 0-8.88-3.907-8.88-8.88v-714.278c0-4.973 3.907-8.88 8.88-8.88h714.633c4.973 0 8.88 3.907 8.88 8.88v239.75h249.695c4.973 0 8.88 3.907 8.88 8.88v714.278c0 4.973-3.907 8.88-8.88 8.88zM695.453 18.403c0-2.486-1.066-4.617-2.486-6.038s-3.552-2.486-6.038-2.486h-609.498c-4.973 0-8.88 3.907-8.88 8.88v610.209c0 2.486 1.066 4.617 2.486 6.038s3.552 2.486 6.038 2.486h198.194v-422.316c0-4.973 3.907-8.88 8.88-8.88h411.305v-187.893zM954.384 267.033c0-2.486-1.066-4.617-2.486-6.038s-3.552-2.486-6.038-2.486h-609.498c-4.973 0-8.88 3.907-8.88 8.88v610.209c0 2.486 1.066 4.617 2.486 6.038s3.552 2.486 6.038 2.486h609.498c4.973 0 8.88-3.907 8.88-8.88v-610.209zM536.33 768.91v-34.808c0-4.973 3.907-8.88 8.88-8.88h194.642c7.814 0 11.721-9.235 6.038-14.918l-311.498-311.498c-3.552-3.552-3.552-8.88 0-12.076l24.863-24.863c3.552-3.552 8.88-3.552 12.076 0l311.498 310.787c5.683 5.683 14.918 1.776 14.918-6.038v-194.287c0-4.973 3.907-8.88 8.88-8.88h34.808c4.973 0 8.88 3.907 8.88 8.88v296.58c0 4.973-3.907 8.88-8.88 8.88h-296.225c-4.973 0-8.88-4.262-8.88-8.88z" />
<glyph unicode="&#xe913;" glyph-name="sfdc-icon-pause-round" horiz-adv-x="1023" d="M762.228-63.29c-62.868 0-113.659 50.792-113.659 113.659v795.616c0 62.868 50.792 113.659 113.659 113.659s113.659-50.792 113.659-113.659v-795.616c0.355-62.868-50.436-113.659-113.659-113.659zM260.706-63.29c-62.868 0-113.659 50.792-113.659 113.659v795.616c0 62.868 50.792 113.659 113.659 113.659s113.659-50.792 113.659-113.659v-795.616c0-62.868-51.147-113.659-113.659-113.659z" />
<glyph unicode="&#xe914;" glyph-name="sfdc-icon-pause-square" d="M128 960h242.976v-1024h-242.976v1024zM648.672 960h242.976v-1024h-242.976v1024z" />
<glyph unicode="&#xe915;" glyph-name="sfdc-icon-play-only" d="M505.6 704l448-256-883.2-512v1024z" />
<glyph unicode="&#xe916;" glyph-name="sfdc-icon-play" d="M512 960c-283.296 0-512-228.704-512-512s228.704-512 512-512 512 228.704 512 512-228.704 512-512 512zM512-12.8c-254.304 0-460.8 206.496-460.8 460.8s206.496 460.8 460.8 460.8 460.8-206.496 460.8-460.8-206.496-460.8-460.8-460.8zM564.896 535.040l151.904-87.040-300.384-174.080v348.16l148.48-87.040z" />
<glyph unicode="&#xe917;" glyph-name="sfdc-icon-plus" horiz-adv-x="1023" d="M954.739 516.373h-375.076v374.721c0 37.65-30.546 68.196-68.196 68.196s-68.196-30.546-68.196-68.196v-374.721h-375.076c-37.65 0-68.196-30.546-68.196-68.196s30.546-68.196 68.196-68.196h374.721v-374.721c0-37.65 30.546-68.196 68.196-68.196s68.196 30.546 68.196 68.196v374.366h374.721c37.65 0 68.196 30.546 68.196 68.196s-29.836 68.551-67.485 68.551z" />
<glyph unicode="&#xe918;" glyph-name="sfdc-icon-product-analytics" horiz-adv-x="1023" d="M511.467 959.29c-282.373 0-511.467-229.095-511.467-511.467s229.095-511.467 511.467-511.467 511.467 229.095 511.467 511.467-229.095 511.467-511.467 511.467zM354.83 214.11c0-3.552-2.841-6.393-6.393-6.393h-90.572c-3.552 0-6.393 2.841-6.393 6.393v172.62c0 3.552 2.841 6.393 6.393 6.393h90.572c3.552 0 6.393-2.841 6.393-6.393v-172.62zM486.959 214.11c0-3.552-2.841-6.393-6.393-6.393h-90.572c-3.552 0-6.393 2.841-6.393 6.393v223.057c0 3.552 2.841 6.393 6.393 6.393h90.572c3.552 0 6.393-2.841 6.393-6.393 0-0.71 0-223.057 0-223.057zM618.733 214.11c0-3.552-2.841-6.393-6.393-6.393h-90.572c-3.552 0-6.393 2.841-6.393 6.393v394.256c0 3.552 2.841 6.393 6.393 6.393h90.572c3.552 0 6.393-2.841 6.393-6.393v-394.256zM750.862 214.11c0-3.552-2.841-6.393-6.393-6.393h-90.572c-3.552 0-6.393 2.841-6.393 6.393v522.123c0 3.552 2.841 6.393 6.393 6.393h90.572c3.552 0 6.393-2.841 6.393-6.393v-522.123z" />
<glyph unicode="&#xe919;" glyph-name="sfdc-icon-product-community" horiz-adv-x="1023" d="M695.809 411.949c-2.131 0.355-3.552 2.486-3.552 4.617v39.426c0 2.131 1.421 3.907 3.197 4.617 42.977 15.983 71.037 56.83 71.037 103.004 0 60.737-49.371 109.752-109.752 109.752 0 0-0.355 0-0.71 0-3.552 0-6.038-4.262-3.907-7.459 14.918-24.863 23.797-53.988 23.797-85.245 0-49.016-21.666-94.124-57.185-124.67-2.486-2.131-2.131-6.038 0.71-7.814 50.081-30.191 85.245-80.627 95.9-138.878 2.486-12.431 3.552-25.218 3.552-38.36v-5.683c0-2.841-2.131-4.973-4.973-4.973h-39.070c-2.841 0-4.973 2.131-4.973 4.973v5.683c0 9.59-0.71 18.825-2.486 28.060v0.355c-10.656 58.961-55.054 107.976-114.015 124.67-2.131 0.71-3.552 2.486-3.552 4.617v39.426c0 2.131 1.421 3.907 3.197 4.617 44.753 17.049 74.234 60.026 74.234 108.332 0 64.999-53.633 117.566-118.987 115.79-59.671-1.421-109.042-49.726-112.239-109.397-2.841-50.792 26.994-96.61 73.879-114.37 1.776-0.71 3.197-2.486 3.197-4.617v-39.426c0-2.131-1.421-3.907-3.552-4.617-67.84-19.18-117.566-81.337-117.566-152.375v-35.163c0 0-0.355-24.508 24.153-24.508h403.136c0 0 24.508 0 24.508 23.797v35.163c0 65.709-45.109 122.894-107.976 140.653zM511.467 959.29c-282.373 0-511.112-228.74-511.467-511.112 0 0 0 0 0-0.355 0 0 0 0 0-0.355 0.355-282.373 229.095-511.112 511.467-511.112s511.112 229.095 511.467 511.822c-0.355 282.728-229.095 511.112-511.467 511.112zM852.445 236.487c0-73.523-73.168-73.168-73.168-72.813h-403.846c-73.168 0-73.168 73.168-73.168 73.168v35.163c0 73.879 40.136 139.943 100.518 176.882 2.841 1.776 3.197 5.683 0.71 7.814-35.519 30.546-57.185 75.655-57.185 124.67 0 31.256 8.524 60.382 23.797 85.245 2.131 3.197 0 7.459-3.907 7.459-0.71 0-1.421 0-2.131 0-60.737 0-109.752-49.371-109.752-109.752 0-46.174 26.994-87.020 69.972-103.004 1.776-0.71 3.197-2.486 3.197-4.617v-39.426c0-2.131-1.421-3.907-3.552-4.617-62.868-17.759-105.49-74.944-105.49-140.653 0 0 0-10.656 0-35.163 0-18.114 13.497-22.732 20.246-23.797 2.131-0.355 3.907-2.131 3.907-4.617v-39.426c0-2.841-2.131-4.973-4.973-4.973-68.906 3.197-67.84 72.813-67.84 72.813v35.163c0 68.196 34.808 129.998 90.217 164.806 2.841 1.776 3.197 5.683 0.71 7.814-34.098 29.48-54.699 72.813-54.699 119.698 0 87.376 71.037 158.413 158.413 158.413 16.339 0 32.677-2.486 47.95-7.459 1.421-0.355 3.197 0 4.262 0.71 26.639 18.825 59.316 29.836 94.479 29.836s67.485-11.011 94.124-29.836c1.421-1.066 2.841-1.066 4.262-0.71 15.273 4.617 31.256 7.104 47.24 7.104 87.376 0 158.413-71.037 158.413-158.413 0-46.884-20.601-90.217-54.699-119.698-2.131-2.131-2.131-6.038 0.71-7.814 55.409-35.163 91.283-96.61 91.283-164.806v-35.163z" />
<glyph unicode="&#xe91a;" glyph-name="sfdc-icon-product-industries" horiz-adv-x="1023" d="M678.76 379.982c-2.131 0.71-3.552 2.486-3.552 4.617v44.043c0 1.776 1.066 3.552 2.841 4.617 39.070 17.759 65.709 56.475 66.065 99.807 0.355 60.737-49.016 110.108-109.752 110.108s-109.752-49.371-109.752-110.108c0-43.688 26.994-82.758 66.42-100.162 1.776-0.71 2.841-2.486 2.841-4.617v-43.688c0-2.131-1.421-3.907-3.552-4.617-44.753-13.852-80.272-48.66-95.19-93.414-3.197-9.945-5.328-19.18-6.393-29.48-0.355-2.486-2.486-4.262-4.617-4.262l-38.715 0.355c-2.841 0-4.973 2.486-4.973 5.328 1.421 13.142 3.907 28.060 7.814 40.136 13.852 44.753 43.688 82.403 82.403 106.911 2.841 1.776 3.197 5.683 0.71 7.814-34.453 29.48-55.054 72.813-55.054 120.053 0 29.125 7.814 56.475 21.666 79.562l0.355 97.676c0 2.841-2.131 4.973-4.973 4.973h-229.805c-2.841 0-4.973-2.131-4.973-4.973v-501.877c0-2.841 2.131-4.973 4.973-4.973h492.998c13.497 0 24.508 11.011 24.508 24.508v12.076c-0.355 64.644-41.912 120.408-102.293 139.588zM402.070 661.644c0 2.841 2.131 4.973 4.973 4.973h39.070c2.841 0 4.973-2.131 4.973-4.973v-51.147c0-2.841-2.131-4.973-4.973-4.973h-39.070c-2.841 0-4.973 2.131-4.973 4.973v51.147zM402.070 543.012c0 2.841 2.131 4.973 4.973 4.973h39.070c2.841 0 4.973-2.131 4.973-4.973v-51.147c0-2.841-2.131-4.973-4.973-4.973h-39.070c-2.841 0-4.973 2.131-4.973 4.973v51.147zM304.039 661.644c0 2.841 2.131 4.973 4.973 4.973h39.070c2.841 0 4.973-2.131 4.973-4.973v-51.147c0-2.841-2.131-4.973-4.973-4.973h-39.070c-2.841 0-4.973 2.131-4.973 4.973v51.147zM352.699 258.864c0-2.841-2.131-4.973-4.973-4.973h-39.070c-2.841 0-4.973 2.131-4.973 4.973v51.147c0 2.841 2.131 4.973 4.973 4.973h39.070c2.841 0 4.973-2.131 4.973-4.973v-51.147zM352.699 377.496c0-2.841-2.131-4.973-4.973-4.973h-39.070c-2.841 0-4.973 2.131-4.973 4.973v51.147c0 2.841 2.131 4.973 4.973 4.973h39.070c2.841 0 4.973-2.131 4.973-4.973v-51.147zM353.054 491.865c0-2.841-2.131-4.973-4.973-4.973h-39.070c-2.841 0-4.973 2.131-4.973 4.973v51.147c0 2.841 2.131 4.973 4.973 4.973h39.070c2.841 0 4.973-2.131 4.973-4.973v-51.147zM402.070 378.206v51.147c0 2.841 2.131 4.973 4.973 4.973h39.070c2.841 0 4.973-2.131 4.973-4.973v-51.147c0-2.841-2.131-4.973-4.973-4.973h-39.070c-2.841 0-4.973 2.131-4.973 4.973zM511.467 959.29c-282.373 0-511.467-229.095-511.467-511.467s229.095-511.467 511.467-511.467 511.467 229.095 511.467 511.467-229.095 511.467-511.467 511.467zM829.358 204.165c0-26.994-21.666-48.66-48.66-48.66h-546.631c-13.497 0-24.508 11.011-24.508 24.508v560.128c0 13.497 11.011 24.508 24.508 24.508h288.411c13.497 0 24.508-11.011 24.508-24.508l-0.355-66.065c0-3.907 4.262-6.038 7.459-4.262 23.797 14.207 51.502 22.022 81.337 22.022 83.824-0.355 153.795-67.485 157.347-151.309 2.131-50.081-18.825-96.255-54.699-126.801-2.486-2.131-2.131-6.038 0.71-7.814 55.409-34.808 90.928-96.61 90.928-164.806v-36.939z" />
<glyph unicode="&#xe91b;" glyph-name="sfdc-icon-product-IoT" horiz-adv-x="1023" d="M511.467 959.29c-282.373 0-511.112-228.74-511.467-511.112 0 0 0 0 0-0.355 0 0 0 0 0-0.355 0.355-282.373 229.095-511.112 511.467-511.112s511.112 229.095 511.467 511.822c-0.355 282.373-229.095 511.112-511.467 511.112zM304.394 544.078c0-1.776-1.421-3.552-3.552-3.552h-13.497c-2.131 0-3.552-1.421-3.552-3.552v-177.948c0-2.131 1.421-3.552 3.552-3.552h13.497c2.131 0 3.552-1.421 3.552-3.552v-25.929c0-2.131-1.421-3.552-3.552-3.552h-69.972c-2.131 0-3.552 1.421-3.552 3.552v25.929c0 2.131 1.421 3.552 3.552 3.552h13.497c2.131 0 3.552 1.421 3.552 3.552v177.948c0 2.131-1.421 3.552-3.552 3.552h-13.497c-2.131 0-3.552 1.421-3.552 3.552v25.929c0 2.131 1.421 3.552 3.552 3.552h69.972c2.131 0 3.552-1.421 3.552-3.552v-25.929zM569.007 397.386c-3.907 0-8.169 0.355-11.721 1.066-7.459-13.497-22.022-22.732-38.36-22.732-6.749 0-13.497 1.421-19.18 4.262-7.814-18.114-25.573-30.546-46.174-30.546-21.666 0-40.136 13.852-47.24 33.032-3.197-0.71-6.393-1.066-9.59-1.066-25.929 0-46.529 20.956-46.529 47.24 0 17.404 9.235 32.677 23.442 40.846-2.841 6.749-4.617 13.852-4.617 21.666 0 29.836 24.153 54.343 54.343 54.343 17.049 0 32.677-8.524 42.622-21.666 8.88 9.235 21.666 15.273 35.519 15.273 18.47 0 34.453-10.3 42.977-25.573 7.459 3.197 15.628 5.328 24.508 5.328 33.387 0 60.382-27.349 60.382-60.737 0-33.743-26.994-60.737-60.382-60.737zM794.905 568.586v-28.415c0-2.131-1.421-3.552-3.552-3.552h-46.174c-2.131 0-3.552-1.421-3.552-3.552v-206.718c0-2.131-1.421-3.552-3.552-3.552h-28.415c-2.131 0-3.552 1.421-3.552 3.552v207.073c0 2.131-1.421 3.552-3.552 3.552h-46.174c-2.131 0-3.552 1.421-3.552 3.552v28.415c0 2.131 1.421 3.552 3.552 3.552h135.681c1.776-0.355 3.552-2.131 2.841-3.907z" />
<glyph unicode="&#xe91c;" glyph-name="sfdc-icon-product-lightning-thunder" horiz-adv-x="1023" d="M604.171 521.346h-86.31c-3.552 0-6.038 3.907-4.262 7.104l83.824 156.282c1.776 3.197-0.71 7.104-4.262 7.104h-133.55c-2.131 0-4.262-1.421-4.617-3.907l-47.595-209.559c-1.066-2.486 1.066-5.683 4.262-5.683h56.475c2.841 0 5.328-2.486 4.973-5.683l-21.666-149.178c-0.71-4.973 6.038-7.814 8.88-3.552l147.757 199.259c2.131 2.841 0 7.814-3.907 7.814zM511.467 959.29c-282.373 0-511.112-228.74-511.467-511.112 0 0 0 0 0-0.355 0 0 0 0 0-0.355 0.355-282.373 229.095-511.112 511.467-511.112s511.112 229.805 511.467 511.822c-0.355 282.728-229.095 511.112-511.467 511.112zM700.781 562.547l-319.312-446.823c-2.486-3.907-9.235-1.421-8.524 3.552l43.688 299.066c0.355 2.841-1.776 5.683-4.973 5.683h-61.092c-3.197 0-5.328 2.841-4.617 6.038l69.616 306.88c0.355 2.131 2.486 3.907 4.617 3.907h253.958c3.552 0 6.038-3.907 4.262-7.104l-83.824-156.282c-1.776-3.197 0.71-7.104 4.262-7.104h98.031c3.907 0 6.393-4.262 3.907-7.814z" />
<glyph unicode="&#xe91d;" glyph-name="sfdc-icon-product-marketing" horiz-adv-x="1023" d="M511.467 594.869c-53.633 0-97.321-43.688-97.321-97.321s43.688-97.321 97.321-97.321c53.633 0 97.321 43.688 97.321 97.321s-43.688 97.321-97.321 97.321zM511.467 448.533c-26.994 0-48.66 21.666-48.66 48.66s21.666 48.66 48.66 48.66c26.994 0 48.66-21.666 48.66-48.66 0-26.639-21.666-48.66-48.66-48.66zM521.768 692.19c-112.239 5.683-205.297-83.469-205.297-194.642 0-41.202 12.787-79.562 34.808-111.173l156.282-196.062c1.776-2.486 5.683-2.486 7.459 0l156.282 196.062c23.087 33.032 36.229 73.879 34.808 117.566-3.197 100.162-83.824 182.921-184.341 188.248zM511.467 351.212c-80.627 0-145.981 65.354-145.981 145.981s65.354 145.981 145.981 145.981 145.981-64.999 145.981-145.981c0-80.627-65.354-145.981-145.981-145.981zM511.467 959.29c-282.373 0-511.112-228.74-511.467-511.112 0 0 0 0 0-0.355s0 0 0-0.355c0.355-282.373 229.095-511.112 511.467-511.112s511.112 229.45 511.467 511.822c-0.355 282.373-229.095 511.112-511.467 511.112zM706.109 351.212l-191.090-238.685c-1.776-2.486-5.683-2.486-7.459 0l-191.090 238.685c-31.256 41.557-49.371 93.414-48.66 149.533 1.776 131.419 108.687 238.33 240.105 240.105 136.036 1.776 246.854-107.976 246.854-243.657 0-54.699-18.114-105.49-48.66-145.981z" />
<glyph unicode="&#xe91e;" glyph-name="sfdc-icon-product-mittlestand" horiz-adv-x="1023" d="M539.882 156.925h68.906v99.452c0 15.628 12.787 28.415 28.415 28.415h133.55v311.143h-230.871v-439.009zM609.854 419.763c0 15.628 12.787 28.415 28.415 28.415s28.415-12.787 28.415-28.415v-63.933c0-15.628-12.787-28.415-28.415-28.415s-28.415 12.787-28.415 28.415v63.933zM511.467 959.645c-282.373 0-511.467-229.095-511.467-511.467s229.095-511.467 511.467-511.467 511.467 229.095 511.467 511.467-229.095 511.467-511.467 511.467zM827.227 127.8c0-15.628-12.787-28.415-28.415-28.415h-2.131c-15.628 0-28.415 12.787-28.415 28.415v99.452h-103.004v-99.452c0-15.628-12.787-28.415-28.415-28.415h-381.824c-15.628 0-28.415 12.787-28.415 28.415v603.815c0 15.628 12.787 28.415 28.415 28.415h256.089c15.628 0 28.415-12.787 28.415-28.415s-12.787-28.415-28.415-28.415h-227.319v-546.631h198.904v467.779c0 15.628 12.787 28.415 28.415 28.415h288.055c15.628 0 28.415-12.787 28.060-28.415v-496.549zM383.245 511.401c-15.628 0-28.415 12.787-28.415 28.415v63.933c0 15.628 12.787 28.415 28.415 28.415s28.415-12.787 28.415-28.415v-63.933c0.355-15.273-12.431-28.415-28.415-28.415zM411.66 419.763v-63.933c0.355-15.628-12.431-28.415-28.415-28.415-15.628 0-28.415 12.787-28.415 28.415v63.933c0 15.628 12.787 28.415 28.415 28.415s28.415-13.142 28.415-28.415z" />
<glyph unicode="&#xe91f;" glyph-name="sfdc-icon-product-platform" horiz-adv-x="1023" d="M637.203 662.71c-2.486 1.421-5.328 0.71-6.749-1.776l-78.851-141.009c-1.776-3.197 0.355-7.104 4.262-7.104l53.633 0.355c4.262 0 6.393-4.617 3.907-7.814l-188.959-243.657c-3.552-4.262-10.656 0-8.169 5.328l82.048 174.396c1.776 3.197-0.71 7.104-4.262 7.104h-69.972c-3.552 0-5.683 3.907-4.262 7.104l110.108 234.422c1.421 3.197-0.71 6.749-4.262 7.104-69.261 3.907-140.298-20.956-192.511-74.944-90.217-93.059-90.572-250.051-0.71-343.464 98.742-103.004 263.903-101.583 360.869 3.907 86.31 94.124 86.31 240.461-0.355 334.585-16.694 18.47-35.519 33.387-55.764 45.464zM511.467 959.29c-282.373 0-511.112-228.74-511.467-511.112 0 0 0 0 0-0.355s0 0 0-0.355c0.355-282.373 229.095-511.112 511.467-511.112s511.112 229.45 511.467 511.822c-0.355 282.373-229.095 511.112-511.467 511.112zM865.587 512.111l-60.026-33.032c-1.776-1.066-2.841-2.841-2.841-6.038 1.776-19.89 1.421-40.136-1.066-60.026-0.355-2.131 0.71-3.907 2.486-4.973l59.671-31.612c2.131-1.066 3.197-3.552 2.486-5.683l-11.721-43.688c-0.71-2.131-2.841-3.552-4.973-3.552l-69.972 1.421c-2.131 0-3.907-1.066-4.617-2.841-8.524-17.404-18.47-34.098-30.546-50.081-1.421-1.776-1.421-3.907-0.355-5.683l37.294-58.961c1.066-1.776 1.066-4.262-0.71-6.038l-31.967-31.967c-1.776-1.421-4.262-1.776-6.038-0.71l-61.802 37.65c-1.776 1.066-3.907 1.066-5.328 0-15.983-11.011-33.032-20.246-50.436-27.704-1.776-0.71-2.841-2.486-2.841-4.617l2.486-68.906c0-2.486-1.421-4.262-3.552-4.973l-43.688-11.366c-2.486-0.355-4.617 0.355-5.683 2.486l-34.453 62.868c-1.066 1.776-2.841 2.486-4.617 2.486-18.825-1.421-37.65-1.066-56.475 1.066-2.131 0.355-3.907-0.71-4.973-2.486l-33.032-62.157c-1.066-2.131-3.552-3.197-5.683-2.486l-43.688 11.721c-2.131 0.71-3.552 2.841-3.552 4.973l1.421 72.458c0 2.131-1.066 3.907-2.841 4.617-16.339 7.814-32.322 17.404-47.595 28.415-1.421 1.421-3.552 1.421-5.328 0.355l-58.606-35.519c-2.131-1.066-4.617-0.71-6.038 0.71l-31.967 31.967c-1.421 1.776-1.776 4.262-0.71 6.038l35.519 60.382c0.71 1.776 0.71 3.907-0.355 5.328-10.656 15.273-19.535 31.256-26.994 47.95-0.71 1.776-2.486 2.841-4.617 2.841l-72.458-2.486c-2.486 0-4.262 1.421-4.973 3.552l-11.721 43.688c-0.355 2.486 0.355 4.617 2.486 5.683l64.289 35.519c1.776 0.71 2.486 2.841 2.486 4.617-1.776 18.47-1.421 37.294 0.355 55.764 0.355 1.776-0.71 3.552-2.486 4.617l-63.223 33.743c-2.131 1.066-3.197 3.552-2.486 5.683l11.721 43.688c0.71 2.131 2.841 3.552 4.973 3.552l72.103-1.421c2.131 0 3.907 1.066 4.617 2.841 7.814 16.694 17.404 33.032 28.415 48.66 1.421 1.421 1.421 3.552 0.355 5.328l-39.781 63.223c-1.066 1.776-1.066 4.262 0.71 6.038l31.967 31.967c1.776 1.421 4.262 1.776 6.038 0.71l64.289-39.070c1.776-0.71 3.907-0.71 5.328 0.355 15.983 11.366 32.677 20.956 50.081 28.77 1.776 0.71 2.841 2.486 2.841 4.617l-2.486 69.972c0 2.486 1.421 4.262 3.552 4.973l43.688 11.721c2.486 0.355 4.617-0.355 5.683-2.486l34.098-61.802c0.71-1.776 2.841-2.841 4.617-2.486 19.89 1.776 39.781 1.776 59.316-0.355 2.131-0.355 3.907 0.71 4.973 2.486l32.322 60.382c1.066 1.776 3.552 2.841 5.683 2.841l43.688-11.721c2.131-0.71 3.552-2.841 3.552-4.973l-1.421-69.616c0-2.131 1.066-3.907 2.841-4.617 18.114-8.169 35.519-18.47 51.857-30.546 1.421-1.421 3.552-1.421 5.328-0.355l57.895 36.939c1.776 1.066 4.262 1.066 6.038-0.71l31.967-31.967c1.421-1.776 1.776-4.262 0.71-6.038l-38.36-62.868c13.497-18.47 24.153-38.36 32.677-58.606l69.972 2.486c2.486 0 4.262-1.421 4.973-3.552l11.721-43.688c0.355-2.486-0.355-4.617-2.486-5.683z" />
<glyph unicode="&#xe920;" glyph-name="sfdc-icon-product-sales" horiz-adv-x="1023" d="M511.467 959.29c-282.373 0-511.112-228.74-511.467-511.112 0 0 0 0 0-0.355s0 0 0-0.355c0.355-282.373 229.095-511.112 511.467-511.112s511.112 229.45 511.467 511.822c-0.355 282.373-229.095 511.112-511.467 511.112zM706.464 229.738c0-73.523-73.168-73.168-73.168-73.168h-243.657c-73.523 0-72.813 72.813-72.813 72.813s0 365.486 0 438.299c0 73.523 73.168 73.168 73.168 73.168h243.302c72.458 0 73.168-72.813 73.168-72.813s0-364.776 0-438.299zM511.467 229.738c-13.497 0-24.508-11.011-24.508-24.508s11.011-24.508 24.508-24.508 24.508 11.011 24.508 24.508-11.011 24.508-24.508 24.508zM657.804 667.682c0 24.863-24.508 24.508-24.508 24.508s-3.197 0-8.169 0l-99.097-156.992c-1.776-3.552 0.71-7.814 4.973-7.814h53.988c4.617 0 7.104-5.328 4.617-8.88l-178.303-225.543c-3.907-5.328-12.431-0.355-9.59 5.683l84.534 161.965c1.776 3.552-1.066 7.814-4.973 7.814h-61.092c-3.907 0-6.749 3.907-5.328 7.459l101.938 216.663c-56.83 0-115.435 0-127.156 0-24.153 0-24.508-24.508-24.508-24.508s0-365.131 0-389.639c0-24.863 24.508-24.508 24.508-24.508s218.439 0 243.657 0c25.218 0 24.508 24.153 24.508 24.153s0 364.776 0 389.639z" />
<glyph unicode="&#xe921;" glyph-name="sfdc-icon-product-service" horiz-adv-x="1023" d="M732.393 521.346h-116.856c-2.841 0-4.973 2.131-4.973 4.973v141.364c0 23.442-24.508 24.508-24.508 24.508h-292.673c-24.508 0-24.508-24.508-24.508-24.508v-170.489c0-26.284 24.508-26.639 24.508-26.639h237.264c4.262 0 6.393-1.776 6.393-6.038v-108.687c0-24.508 24.508-24.508 24.508-24.508s140.653 0 166.582 0c28.77 0 28.415 24.508 28.415 24.508v0h0.355v142.429c0 24.153-24.508 23.087-24.508 23.087zM511.467 959.29c-282.373 0-511.467-228.74-511.467-511.467 0-282.373 229.095-511.467 511.467-511.467s511.467 228.74 511.467 511.467c0 282.373-229.095 511.467-511.467 511.467zM803.785 353.698c0 0 0-73.168-73.168-73.168-2.131 0-3.907-1.066-4.617-2.486l-84.889-149.533c-2.486-4.262-9.235-2.486-9.235 2.486v144.561c0 2.841-2.131 4.973-4.973 4.973h-67.13c0 0-73.168 0-73.168 73.168v64.644c0 2.841-2.131 4.973-4.973 4.973h-86.31c-2.841 0-4.973-2.131-4.973-4.973v-230.16c0-5.328-7.104-6.749-9.235-1.776l-87.376 234.067c-0.71 1.776-2.486 3.197-4.617 3.197-70.327 0.355-69.616 73.168-69.616 73.168v170.489c0 73.168 73.168 73.168 73.168 73.168h291.607c0 0 73.168 0.355 73.168-73.168v-91.283c0-2.841 2.131-4.973 4.973-4.973h68.196c0 0 73.168 1.776 73.168-73.168v-144.205z" />
<glyph unicode="&#xe922;" glyph-name="sfdc-icon-product-SMB" horiz-adv-x="1023" d="M511.467 959.645c-282.373 0-511.467-229.095-511.467-511.467s229.095-511.467 511.467-511.467 511.467 229.095 511.467 511.467-229.095 511.467-511.467 511.467zM753.349 211.624c0-13.497-11.011-24.863-24.863-24.863s-24.863 11.011-24.863 24.863v236.198h-110.818l2.131-227.674c0-6.749-2.486-12.787-7.104-17.759-4.617-4.617-11.011-7.459-17.404-7.459h-275.979c-13.497 0-24.863 11.011-24.863 24.863v252.537c0 13.497 11.011 24.863 24.863 24.863h434.392c13.497 0 24.863-11.011 24.863-24.863v-260.706zM820.834 543.723c-4.617-6.749-12.076-10.656-20.246-10.656h-577.887c-8.169 0-15.983 4.262-20.601 11.011s-5.328 15.628-2.131 23.087l52.567 126.801c3.907 9.235 12.787 15.273 22.732 15.273h475.593c10.3 0 19.18-6.393 23.087-15.628l49.726-126.801c2.841-7.814 1.776-16.339-2.841-23.087zM318.957 447.822v-203.166h226.253l-1.776 203.166zM291.607 659.868l-31.967-77.43h504.719l-30.546 77.43z" />
<glyph unicode="&#xe923;" glyph-name="sfdc-icon-retweet" horiz-adv-x="1023" d="M254.313 285.858v267.1h103.359l-179.014 203.521-179.014-203.521h103.359v-307.946c0-56.475 45.819-102.293 102.293-102.293h459.255l-131.063 143.14h-279.176zM919.22 346.239v307.946c0 56.475-45.819 102.293-102.293 102.293h-459.255l131.063-143.14h279.176v-267.1h-103.359l179.014-203.521 179.014 203.521h-103.359z" />
<glyph unicode="&#xe924;" glyph-name="sfdc-icon-right-arrow" horiz-adv-x="1023" d="M235.843-5.394l444.337 444.337c4.973 4.973 4.973 12.787 0 17.759l-444.337 444.692c-4.973 4.973-4.973 12.787 0 17.759l35.519 35.519c4.973 4.973 12.787 4.973 17.759 0l497.615-497.615c4.973-4.973 4.973-12.787 0-17.759l-497.615-497.615c-4.973-4.973-12.787-4.973-17.759 0l-35.519 35.519c-4.617 4.617-4.617 12.787 0 17.404z" />
<glyph unicode="&#xe925;" glyph-name="sfdc-icon-share" horiz-adv-x="1023" d="M884.412-63.645h-873.757c-6.038 0-10.656 4.617-10.656 10.656v873.757c0 6.038 4.617 10.656 10.656 10.656h426.933c6.038 0 10.656-4.617 10.656-10.656v-42.267c0-6.038-4.617-10.656-10.656-10.656h-362.644c-6.038 0-10.656-4.617-10.656-10.656v-746.245c0-6.038 4.617-10.656 10.656-10.656h745.535c6.038 0 10.656 4.617 10.656 10.656v362.289c0 6.038 4.617 10.656 10.656 10.656h42.622c6.038 0 10.656-4.617 10.656-10.656v-426.223c0-6.038-4.973-10.656-10.656-10.656zM639.334 948.634v-42.622c0-6.038 4.617-10.656 10.656-10.656h237.974c9.59 0 14.207-11.366 7.459-18.114l-463.162-463.162c-4.262-4.262-4.262-11.011 0-14.918l30.191-30.191c4.262-4.262 11.011-4.262 14.918 0l463.517 462.452c6.749 6.749 18.114 2.131 18.114-7.459v-237.974c0-6.038 4.617-10.656 10.656-10.656h42.622c6.038 0 10.656 4.617 10.656 10.656v362.644c0 6.038-4.617 10.656-10.656 10.656h-362.289c-6.038 0-10.656-4.973-10.656-10.656z" />
<glyph unicode="&#xe926;" glyph-name="sfdc-icon-social-facebook-inverted" horiz-adv-x="1023" d="M776.080 789.511h-96.61c-75.655 0-89.862-35.874-89.862-88.441v-116.146h180.434l-23.087-181.855h-156.282v-467.069h-187.893v467.424h-156.992v181.855h156.992v133.905c0 155.571 95.19 240.105 234.067 240.105 66.775 0 123.605-5.328 140.653-7.459v-162.32h-1.421z" />
<glyph unicode="&#xe927;" glyph-name="sfdc-icon-social-facebook" horiz-adv-x="1023" d="M511.467 959.29c-282.373 0-511.467-229.095-511.467-511.467s229.095-511.467 511.467-511.467c282.373 0 511.467 229.095 511.467 511.467s-229.095 511.467-511.467 511.467zM637.558 610.142h-45.819c-35.874 0-42.622-17.049-42.622-41.912v-55.054h85.6l-11.011-86.31h-74.234v-221.636h-89.152v221.636h-74.589v86.31h74.589v63.578c0 73.879 45.109 114.015 111.173 114.015 31.612 0 58.606-2.486 66.775-3.552v-77.075z" />
<glyph unicode="&#xe928;" glyph-name="sfdc-icon-social-google-inverted" horiz-adv-x="1023" d="M325.35 122.472c-180.079 0-325.35 145.626-325.35 325.35 0 180.079 145.626 325.35 325.35 325.35 88.086 0 160.899-32.322 218.084-85.245l-88.441-85.245c-24.153 23.087-66.775 50.081-129.288 50.081-110.818 0-201.745-91.993-201.745-205.297s90.928-205.297 201.745-205.297c128.932 0 177.238 92.703 184.696 140.298h-184.696v111.528h306.88c2.841-15.983 5.328-32.677 5.328-53.988 0.355-185.052-124.315-317.536-312.563-317.536zM1022.934 401.293h-93.059v-93.059h-93.059v93.059h-93.059v93.059h93.059v93.059h93.059v-93.059h93.059v-93.059z" />
<glyph unicode="&#xe929;" glyph-name="sfdc-icon-social-google" horiz-adv-x="1023" d="M511.467 959.29c-282.373 0-511.467-229.095-511.467-511.467s229.095-511.467 511.467-511.467 511.467 229.095 511.467 511.467-229.095 511.467-511.467 511.467zM396.387 246.787c-111.173 0-201.035 89.862-201.035 201.035s89.862 201.035 201.035 201.035c54.343 0 99.452-19.89 134.615-52.567l-54.699-52.567c-14.918 14.207-41.202 30.901-79.917 30.901-68.551 0-124.67-56.83-124.67-126.801s56.119-126.801 124.67-126.801c79.562 0 109.397 57.185 114.015 86.665h-114.015v68.906h189.669c1.776-9.945 3.197-20.246 3.197-33.387 0.355-114.725-76.72-196.418-192.866-196.418zM827.227 419.052h-57.54v-57.54h-57.54v57.54h-57.54v57.54h57.54v57.54h57.54v-57.54h57.54v-57.54z" />
<glyph unicode="&#xe92a;" glyph-name="sfdc-icon-social-linkedin-inverted" horiz-adv-x="1023" d="M219.505-23.154h-219.505v653.541h219.505v-653.541zM111.528 704.622c-60.382 0-107.621 47.24-107.621 107.621s47.24 107.621 107.621 107.621c60.382 0 107.621-47.24 107.621-107.621 0.355-60.382-47.24-107.621-107.621-107.621zM1022.934-23.154h-210.98v309.722c0 73.523 0 167.292-107.621 167.292s-124.67-81.693-124.67-163.741v-314.339h-210.98v653.541h201.745v-103.359h4.617c29.836 51.857 94.835 103.359 197.838 103.359 210.98 0 249.34-133.195 249.34-305.104v-347.727h0.71z" />
<glyph unicode="&#xe92b;" glyph-name="sfdc-icon-social-linkedin" horiz-adv-x="1023" d="M511.467 959.29c-282.373 0-511.467-229.095-511.467-511.467s229.095-511.467 511.467-511.467c282.373 0 511.467 229.095 511.467 511.467 0 282.728-229.095 511.467-511.467 511.467zM375.786 262.060h-101.938v303.684h101.938v-303.684zM325.705 599.842c-28.060 0-50.081 22.022-50.081 50.081s22.022 50.081 50.081 50.081 50.081-22.022 50.081-50.081-22.022-50.081-50.081-50.081zM749.086 262.060h-98.031v143.85c0 34.098 0 77.786-50.081 77.786s-57.895-38.005-57.895-76.010v-145.981h-98.031v303.684h93.769v-47.95h2.131c13.852 24.153 44.043 47.95 91.993 47.95 98.031 0 115.79-61.802 115.79-141.719v-161.609z" />
<glyph unicode="&#xe92c;" glyph-name="sfdc-icon-social-twitter-inverted" horiz-adv-x="1023" d="M918.155 656.672c0.355-8.88 0.71-18.114 0.71-27.349 0-277.045-211.335-597.067-597.067-597.067-118.632 0-228.74 34.808-321.798 94.124 16.339-2.131 33.032-2.841 50.081-2.841 98.386 0 188.959 33.743 260.706 89.862-91.993 1.776-169.424 62.513-196.062 145.626 12.787-2.486 25.929-3.907 39.426-3.907 19.18 0 37.65 2.486 55.409 7.459-95.9 19.535-168.358 104.069-168.358 205.652 0 1.066 0 1.776 0 2.841 28.060-15.628 60.737-25.218 94.835-26.284-56.119 38.005-93.414 102.293-93.414 175.106 0 38.36 10.3 74.589 28.415 105.49 103.359-126.801 258.22-210.625 432.616-219.149-3.552 15.628-5.328 31.612-5.328 47.95 0 116.146 93.769 209.915 209.915 209.915 60.382 0 114.725-25.573 153.085-66.42 47.95 9.59 92.703 26.994 133.195 50.792-15.628-49.016-49.016-90.217-92.348-116.146 42.622 4.973 82.758 16.339 120.763 33.032-28.060-42.267-63.933-79.206-104.78-108.687v0z" />
<glyph unicode="&#xe92d;" glyph-name="sfdc-icon-social-twitter" horiz-adv-x="1023" d="M511.467 959.645c-282.373 0-511.467-229.095-511.467-511.467s229.095-511.467 511.467-511.467c282.373 0 511.467 229.095 511.467 511.467s-229.095 511.467-511.467 511.467v0zM765.78 578.531c0.355-5.683 0.355-11.366 0.355-17.049 0-173.331-132.129-373.3-373.3-373.3-74.234 0-143.14 21.666-201.035 58.961 10.3-1.421 20.601-1.776 31.256-1.776 61.447 0 117.922 20.956 163.030 56.119-57.54 1.066-105.845 39.070-122.539 90.928 8.169-1.421 16.339-2.486 24.508-2.486 12.076 0 23.442 1.776 34.453 4.617-60.026 12.076-105.135 64.999-105.135 128.577 0 0.71 0 1.066 0 1.776 17.759-9.945 38.005-15.628 59.316-16.339-35.163 23.442-58.25 63.578-58.25 109.042 0 24.153 6.393 46.529 17.759 66.065 64.644-79.206 161.254-131.419 270.296-137.102-2.131 9.59-3.197 19.535-3.197 29.836 0 72.458 58.606 131.063 131.063 131.063 37.65 0 71.747-15.983 95.9-41.557 29.836 6.038 57.895 16.694 83.113 31.967-9.59-30.546-30.546-56.475-57.54-72.458 26.639 3.197 51.857 10.3 75.299 20.601-17.759-25.929-39.781-49.016-65.354-67.485v0z" />
<glyph unicode="&#xe92e;" glyph-name="sfdc-icon-social-youtube-inverted" horiz-adv-x="1023" d="M1012.634 652.764c0 0-9.945 70.327-40.491 101.583-39.070 40.846-82.403 40.846-102.649 43.333-143.14 10.3-358.027 10.3-358.027 10.3h-0.355c0 0-214.887 0-358.027-10.3-19.89-2.486-63.578-2.486-102.649-43.333-30.191-31.256-40.136-101.583-40.136-101.583s-10.3-82.758-10.3-165.872v-77.43c0-82.758 10.3-165.516 10.3-165.516s9.945-70.327 40.491-101.583c39.070-40.846 89.862-39.426 112.949-43.688 81.693-7.814 347.727-10.3 347.727-10.3s214.887 0.355 358.027 10.656c19.89 2.486 63.578 2.486 102.649 43.333 30.546 30.901 40.491 101.583 40.491 101.583s10.3 82.758 10.3 165.516v77.43c0 83.113-10.3 165.872-10.3 165.872zM405.977 315.338v287.345l276.334-144.205-276.334-143.14z" />
<glyph unicode="&#xe92f;" glyph-name="sfdc-icon-social-youtube" horiz-adv-x="1023" d="M451.441 372.523l156.992 81.693-156.992 82.048zM511.467 959.645c-282.373 0-511.467-229.095-511.467-511.467s229.095-511.467 511.467-511.467c282.373 0 511.467 229.095 511.467 511.467s-229.095 511.467-511.467 511.467zM802.364 426.156c0-47.24-5.683-94.124-5.683-94.124s-5.683-40.136-23.087-57.895c-22.022-23.087-46.884-23.442-58.25-24.508-81.337-6.038-203.877-6.038-203.877-6.038s-151.309 1.421-197.838 5.683c-12.787 2.486-41.912 1.776-64.289 24.863-17.404 17.759-23.087 57.895-23.087 57.895s-5.683 47.24-5.683 94.124v44.043c0 47.24 5.683 94.124 5.683 94.124s5.683 40.136 23.087 57.895c22.022 23.087 46.884 23.442 58.25 24.508 81.337 6.038 203.521 6.038 203.521 6.038h0.355c0 0 122.184 0 203.521-6.038 11.366-1.421 36.229-1.421 58.25-24.508 17.404-17.759 23.087-57.895 23.087-57.895s5.683-47.24 5.683-94.124v-44.043z" />
<glyph unicode="&#xe930;" glyph-name="sfdc-icon-sound-bar" d="M384 960h242.976v-1024h-242.976v1024z" />
<glyph unicode="&#xe931;" glyph-name="sfdc-icon-sound-mute" d="M1024.993 859.058l-64.078 74.752-437.776-416.396-437.776 416.396-74.752-74.752 427.070-416.396-427.070-416.396 74.752-74.752 437.776 416.396 437.776-416.396 64.078 74.752-427.070 416.396z" />
<glyph unicode="&#xe932;" glyph-name="sfdc-icon-sound" d="M984.768 960l-543.168-311.648h-409.6v-400.704h409.6l543.168-311.648z" />
<glyph unicode="&#xe933;" glyph-name="sfdc-icon-star" horiz-adv-x="1023" d="M538.817 918.088l127.156-281.307c4.262-9.59 13.497-16.339 24.153-17.404l305.815-33.032c25.929-2.841 36.229-34.808 17.049-52.212l-227.319-208.849c-7.814-7.104-11.366-17.759-9.235-28.415l61.802-300.487c5.328-25.218-21.666-45.109-44.398-32.322l-267.81 150.954c-9.235 5.328-20.601 5.328-29.48 0l-267.81-150.954c-22.377-12.787-49.726 7.104-44.398 32.322l61.802 300.487c2.131 10.3-1.421 21.311-9.235 28.415l-226.964 208.494c-19.18 17.404-8.524 49.371 17.049 52.212l305.815 33.032c10.656 1.066 19.89 7.814 24.153 17.404l127.156 281.307c10.656 24.153 44.043 24.153 54.699 0.355z" />
<glyph unicode="&#xe934;" glyph-name="sfdc-icon-talk-bubble-plus" horiz-adv-x="1023" d="M639.334 161.543c44.398 63.223 71.392 141.364 71.392 226.253 0 208.494-159.123 377.562-355.186 377.562s-355.541-169.068-355.541-377.917c0-208.494 159.123-377.562 355.186-377.562 79.917 0 153.44 28.415 212.756 75.655l142.429-75.655-71.037 151.664zM829.003 886.121h65.354v-322.508h-65.354v322.508zM700.426 757.544h322.508v-65.354h-322.508v65.354z" />
<glyph unicode="&#xe935;" glyph-name="sfdc-icon-talk-bubble" d="M898.844 141.867c60.444 85.689 96.711 191.289 96.711 306.489 0 282.667-215.467 512-481.422 512s-481.778-228.978-481.778-512c0-282.667 215.467-512 481.422-512 108.444 0 208 38.4 288.356 102.756l193.067-102.756-96.356 205.511z" />
<glyph unicode="&#xe936;" glyph-name="sfdc-icon-tooltip" horiz-adv-x="1023" d="M766.49 447.822c0-140.845-114.178-255.023-255.023-255.023s-255.023 114.178-255.023 255.023c0 140.845 114.178 255.023 255.023 255.023s255.023-114.178 255.023-255.023zM511.467-63.29c-282.017 0-511.467 229.45-511.467 511.467s229.45 511.467 511.467 511.467 511.467-229.45 511.467-511.467-229.45-511.467-511.467-511.467zM511.467 837.461c-214.887 0-389.639-174.751-389.639-389.639s174.751-389.283 389.639-389.283c214.887 0 389.639 174.751 389.639 389.639s-174.751 389.283-389.639 389.283z" />
<glyph unicode="&#xe937;" glyph-name="sfdc-icon-up-arrow" horiz-adv-x="1023" d="M965.75 171.843l-445.403 445.758c-4.973 4.973-12.787 4.973-17.759 0l-445.403-445.758c-4.973-4.973-12.787-4.973-17.759 0l-35.519 35.519c-4.973 4.973-4.973 12.787 0 17.759l498.681 499.036c4.973 4.973 12.787 4.973 17.759 0l499.036-498.681c4.973-4.973 4.973-12.787 0-17.759l-35.519-35.519c-4.973-4.973-13.142-4.973-18.114-0.355z" />
<glyph unicode="&#xe938;" glyph-name="sfdc-icon-volume" horiz-adv-x="1023" d="M435.458 740.851c-15.273 7.104-33.032 4.262-45.819-6.749l-112.949-98.386h-234.067c-23.442 0-42.622-19.18-42.622-42.622v-289.831c0-23.442 19.18-42.622 42.622-42.622h234.067l112.949-98.386c7.814-6.749 17.759-10.656 28.060-10.656 6.038 0 12.076 1.421 17.759 3.907 15.273 7.104 24.863 22.022 24.863 38.715v507.56c0 16.694-9.59 31.967-24.863 39.070zM584.28 270.94c-10.3 0-20.601 3.907-29.125 11.366-17.404 15.983-18.47 42.977-2.486 60.382 0.355 0.355 41.202 46.174 41.202 105.49s-40.846 105.135-41.557 105.49c-15.628 17.404-14.563 44.398 2.841 60.026 17.404 15.983 44.043 14.918 60.026-2.486 2.486-2.841 63.933-70.327 63.933-163.385s-61.447-160.544-63.933-163.385c-8.169-8.88-19.535-13.497-30.901-13.497zM726.71 203.81c-10.3 0-20.601 3.907-29.125 11.366-17.404 15.983-18.47 42.977-2.486 60.382 0.71 0.71 67.485 75.299 67.485 172.62 0 98.386-66.775 171.91-67.485 172.62-15.983 17.404-14.918 44.398 2.486 60.382s44.398 14.918 60.382-2.486c3.552-3.907 90.217-99.097 90.217-230.515s-86.665-226.608-90.217-230.515c-8.169-9.235-19.535-13.852-31.256-13.852zM864.166 108.62c-10.3 0-20.601 3.907-29.125 11.366-17.404 15.983-18.47 42.977-2.486 60.382 1.066 1.066 104.78 116.146 104.78 267.81 0 152.73-103.714 266.744-104.78 267.81-15.983 17.404-14.918 44.398 2.486 60.382s44.398 14.918 60.382-2.486c5.328-5.683 127.512-139.943 127.512-325.705s-122.539-320.022-127.512-325.705c-8.524-9.235-19.89-13.852-31.256-13.852z" />
<glyph unicode="&#xe939;" glyph-name="sfdc-icon-whitepaper" horiz-adv-x="1023" d="M689.77 959.645h-566.521c-5.328 0-9.59-4.262-9.59-9.59v-1004.11c0-5.328 4.262-9.59 9.59-9.59h776.791c5.328 0 9.59 4.262 9.59 9.59v794.195c0 2.486-1.066 4.973-2.841 6.749l-210.27 209.915c-1.776 1.776-4.262 2.841-6.749 2.841zM698.295 874.755l126.446-126.446c6.038-6.038 1.776-16.339-6.749-16.339h-126.446c-5.328 0-9.59 4.262-9.59 9.59v126.446c0 8.524 10.3 12.787 16.339 6.749zM842.855-6.46h-662.776c-5.328 0-9.59 4.262-9.59 9.59v890.095c0 5.328 4.262 9.59 9.59 9.59h435.813c5.328 0 9.59-4.262 9.59-9.59v-208.494c0-5.328 4.262-9.59 9.59-9.59h208.494c5.328 0 9.59-4.262 9.59-9.59v-663.131c-0.71-4.617-4.973-8.88-10.3-8.88z" />
<glyph unicode="&#xe93a;" glyph-name="sfdc-icon-whitepaper2" horiz-adv-x="1023" d="M511.467 959.645c-282.373 0-511.467-229.095-511.467-511.467s229.095-511.467 511.467-511.467 511.467 229.095 511.467 511.467-229.095 511.467-511.467 511.467zM712.147 234.356c0-2.486-2.131-4.617-4.617-4.617h-363.355c-2.486 0-4.617 2.131-4.617 4.617v469.911c0 2.486 2.131 4.617 4.617 4.617h265.324c1.066 0 2.486-0.355 3.197-1.421l98.386-98.386c0.71-0.71 1.421-2.131 1.421-3.197v-371.524zM681.246 575.689h-97.676c-2.486 0-4.617 2.131-4.617 4.617v97.676c0 2.486-2.131 4.617-4.617 4.617h-203.877c-2.486 0-4.617-2.131-4.617-4.617v-416.633c0-2.486 2.131-4.617 4.617-4.617h310.432c2.486 0 4.617 2.131 4.973 4.262v310.432c0 2.131-2.131 4.262-4.617 4.262zM610.209 602.328h59.316c3.907 0 6.038 4.973 3.197 7.814l-59.316 59.316c-2.841 2.841-7.814 0.71-7.814-3.197v-59.316c0-2.841 2.131-4.617 4.617-4.617z" />
<glyph unicode="&#xe93b;" glyph-name="sfdc-icon-x" horiz-adv-x="1023" d="M1018.672 914.891l-40.491 40.491c-5.683 5.683-14.563 5.683-20.246 0l-436.168-436.523c-5.683-5.683-14.563-5.683-20.246 0l-436.523 436.523c-5.683 5.683-14.563 5.683-20.246 0l-40.491-40.491c-5.683-5.683-5.683-14.563 0-20.246l436.168-436.523c5.683-5.683 5.683-14.563 0-20.246l-436.168-436.168c-5.683-5.683-5.683-14.563 0-20.246l40.491-40.491c5.683-5.683 14.563-5.683 20.246 0l436.523 436.523c5.683 5.683 14.563 5.683 20.246 0l436.523-436.523c5.683-5.683 14.563-5.683 20.246 0l40.491 40.491c5.683 5.683 5.683 14.563 0 20.246l-436.523 436.168c-5.683 5.683-5.683 14.563 0 20.246l436.168 436.523c5.683 5.683 5.683 14.563 0 20.246z" />
<glyph unicode="&#xe93c;" glyph-name="sfdc-icon-certified" horiz-adv-x="1023" d="M395.677 453.505c0 0-4.262 0.71-8.88 0.71-6.749 0-9.235-2.486-9.235-2.486-1.776-1.421-2.841-3.552-2.841-6.393 0-1.776 0.355-3.197 1.066-4.262 0.355-0.71 0.71-1.066 1.776-1.776v0c0 0 2.841-2.131 9.59-1.776 4.617 0.355 8.88 1.066 8.88 1.066v0 14.918zM459.255 472.685c-4.262 0-7.104-1.776-9.235-4.617-1.421-2.131-2.131-4.617-2.486-7.459h23.087c-0.355 2.841-0.71 5.683-2.131 7.459-2.131 3.197-4.973 4.617-9.235 4.617zM718.54 472.685c-4.262 0-7.104-1.776-9.235-4.617-1.421-2.131-2.131-4.617-2.486-7.459h23.087c-0.355 2.841-0.71 5.683-2.131 7.459-2.131 3.197-4.973 4.617-9.235 4.617zM589.253 472.685c-4.262 0-7.459-1.421-9.235-4.617-2.131-3.197-3.197-7.459-3.197-12.787 0-5.683 1.066-9.945 3.197-13.142s4.973-4.617 9.235-4.617c4.262 0 7.459 1.421 9.235 4.617 2.131 3.197 3.197 7.459 3.197 13.142s-1.066 9.945-3.197 12.787c-1.776 3.197-4.973 4.617-9.235 4.617zM676.629 585.634c-17.404 0-33.743-3.552-48.66-10.3-17.049 30.546-49.371 51.147-86.31 51.147-27.704 0-52.923-11.721-70.682-30.546-19.89 25.929-51.147 42.622-86.31 42.622-60.026 0-108.332-48.305-108.332-108.332 0-15.273 3.197-29.836 8.88-42.977-27.704-16.339-46.529-46.529-46.529-81.337 0-51.857 41.912-94.124 93.059-94.124 6.393 0 13.142 0.71 19.18 2.131 14.207-38.36 51.147-65.709 94.124-65.709 41.557 0 77.075 25.218 92.348 61.092 11.721-5.683 24.863-8.88 38.36-8.88 33.032 0 61.802 18.114 76.72 45.109 7.814-1.421 15.628-2.486 23.797-2.486 66.42 0 120.408 54.343 120.408 121.473 0.355 66.775-53.278 121.118-120.053 121.118zM358.382 444.981c0-9.945-7.104-15.983-18.47-15.983-5.683 0-11.011 0.71-16.694 3.907-1.066 0.71-2.131 1.066-3.197 1.776 0 0-0.71 0.355-0.355 1.421l2.131 6.393c0.355 1.066 1.066 0.71 1.421 0.355 0.71-0.355 1.066-0.71 1.776-1.066 6.749-4.262 12.787-4.262 14.918-4.262 4.973 0 8.169 2.486 8.169 6.038v0.355c0 3.907-4.617 5.328-10.3 7.104l-1.066 0.355c-7.459 2.131-15.628 5.328-15.628 14.918v0.355c0 9.235 7.459 15.273 17.759 15.273h1.066c6.038 0 12.076-1.776 16.339-4.262 0.355-0.355 0.71-0.71 0.71-1.421-0.355-0.71-2.131-5.683-2.486-6.393-0.355-1.066-1.421-0.355-1.421-0.355-3.907 2.131-9.59 3.552-14.563 3.552-4.262 0-7.459-2.486-7.459-5.683v-0.355c0-3.907 4.973-5.328 10.656-7.104l1.066-0.355c7.459-2.131 15.628-5.328 15.628-14.563v0zM405.267 432.194c0 0-1.066-0.355-2.131-0.71s-4.973-1.066-8.169-1.421c-3.197-0.71-6.393-0.71-9.945-0.71-3.197 0-6.038 0.355-8.524 0.71-2.486 0.71-4.973 1.421-6.749 2.841s-3.197 2.841-4.262 4.973c-1.066 2.131-1.421 4.617-1.421 7.459s0.71 5.328 1.776 7.459c1.066 2.131 2.841 3.907 4.617 5.328 2.131 1.421 4.262 2.486 6.749 3.197s5.328 1.066 7.814 1.066c2.131 0 3.907 0 4.973 0 0 0 2.486-0.355 5.328-0.71v1.421c0 4.262-1.066 6.393-2.841 7.814s-4.617 2.131-8.169 2.131c0 0-7.814 0-14.207-3.197-0.355 0-0.355-0.355-0.355-0.355s-0.71-0.355-1.066 0.355l-2.131 6.038c-0.355 1.066 0.355 1.421 0.355 1.421 2.841 2.131 9.945 3.552 9.945 3.552 2.486 0.355 6.393 0.71 8.524 0.71 6.393 0 11.366-1.421 14.918-4.617 3.552-2.841 4.973-7.814 4.973-14.207v-29.48c0.71 0 0.71-1.066 0-1.066zM426.933 431.129c0-0.71-0.355-1.066-1.066-1.066h-8.524c-0.71 0-1.066 0.355-1.066 1.066v68.906c0 0.71 0.355 1.066 1.066 1.066h8.524c0.71 0 1.066-0.355 1.066-1.066v-68.906zM480.566 453.505c0-0.71-1.066-0.71-1.066-0.71h-32.322c0.355-4.973 1.421-8.524 3.907-10.656 2.486-2.486 6.038-3.907 11.011-3.907 7.814 0 11.011 1.421 13.142 2.486 0 0 1.066 0.355 1.066-0.71l2.131-6.038c0.355-1.066 0-1.421-0.355-1.421-2.131-1.066-7.104-3.197-16.339-3.197-4.617 0-8.524 0.71-11.721 1.776-3.197 1.421-6.038 3.197-8.169 5.328s-3.552 4.973-4.617 8.169c-1.066 3.197-1.421 6.749-1.421 10.3s0.355 7.104 1.421 10.3c1.066 3.197 2.486 6.038 4.262 8.524 2.131 2.486 4.617 4.262 7.459 5.683s6.749 2.131 10.656 2.131c3.552 0 6.749-0.71 9.235-1.776 2.131-0.71 3.907-2.486 6.038-4.617 1.421-1.421 3.197-4.617 4.262-7.459 2.486-7.814 1.421-13.852 1.421-14.207zM490.866 432.905c-1.066 0.71-2.131 1.066-3.197 1.776 0 0-0.71 0.355-0.355 1.421l2.131 6.393c0.355 1.066 1.421 0.71 1.421 0.355 0.71-0.355 1.066-0.71 1.776-1.066 6.749-4.262 12.787-4.262 14.918-4.262 4.973 0 8.169 2.486 8.169 6.038v0.355c0 3.907-4.617 5.328-10.3 7.104l-1.066 0.355c-7.459 2.131-15.628 5.328-15.628 14.918v0.355c0 9.235 7.459 15.273 17.759 15.273h1.066c6.038 0 12.076-1.776 16.339-4.262 0.355-0.355 0.71-0.71 0.71-1.421-0.355-0.71-2.131-5.683-2.486-6.393-0.355-1.066-1.421-0.355-1.421-0.355-3.907 2.131-9.59 3.552-14.563 3.552-4.262 0-7.459-2.486-7.459-5.683v-0.355c0-3.907 4.973-5.328 10.656-7.104l1.066-0.355c7.459-2.486 15.628-5.683 15.628-14.563v-0.355c0-9.945-7.104-15.983-18.47-15.983-5.683 0.355-11.011 1.066-16.694 4.262zM564.035 472.685c-0.355-1.066-1.066-1.066-1.066-1.066h-10.656l-7.459-41.202c-0.71-4.262-1.776-7.814-2.841-11.011-1.066-2.841-2.486-4.973-4.262-7.104-1.776-1.776-3.552-3.197-6.038-4.262-2.131-0.71-4.973-1.066-7.814-1.066-1.421 0-2.841 0-4.617 0.355-1.421 0.355-2.131 0.355-2.841 0.71-0.355 0-0.71 0.71-0.355 1.421s2.131 6.038 2.486 6.749c0.355 0.71 1.066 0.355 1.066 0.355 0.71-0.355 1.066-0.355 1.776-0.71 0.71 0 1.776-0.355 2.486-0.355 1.421 0 2.841 0 3.907 0.71 1.421 0.355 2.131 1.066 2.841 2.131s1.421 2.486 2.131 4.617c0.71 2.131 1.421 4.617 1.776 7.814l7.104 40.491h-7.104c-0.71 0-1.066 0.355-1.066 1.066l1.066 6.749c0.355 1.066 1.066 1.066 1.066 1.066h7.459l0.355 2.131c1.066 6.393 3.197 11.366 6.393 14.563s7.814 4.973 13.852 4.973c1.776 0 3.197 0 4.262-0.355s2.131-0.355 3.197-0.71c0.355 0 0.71-0.355 0.71-1.066l-2.486-6.749c-0.355-0.355-0.355-0.71-1.421-0.355-0.355 0-0.71 0.355-1.776 0.355-0.71 0-1.776 0.355-2.486 0.355-1.421 0-2.486 0-3.552-0.355s-1.776-1.066-2.841-1.776c-0.71-0.71-1.776-2.131-2.131-3.552-1.066-3.552-1.776-7.104-1.776-7.459h10.3c0.71 0 1.066-0.355 1.066-1.066l-0.71-6.393zM611.274 444.981c-1.066-3.197-2.486-6.038-4.262-8.169-2.131-2.486-4.262-4.262-7.459-5.683-2.841-1.421-6.393-2.131-10.3-2.131s-7.459 0.71-10.3 2.131c-2.841 1.421-5.328 3.197-7.459 5.683-1.776 2.486-3.552 4.973-4.262 8.169-1.066 3.197-1.421 6.749-1.421 10.3s0.355 7.104 1.421 10.3c1.066 3.197 2.486 6.038 4.262 8.169 2.131 2.486 4.262 4.262 7.459 5.683 2.841 1.421 6.393 2.131 10.3 2.131s7.459-0.71 10.3-2.131c2.841-1.421 5.328-3.197 7.459-5.683 1.776-2.486 3.552-4.973 4.262-8.169 1.066-3.197 1.421-6.749 1.421-10.3s-0.355-7.104-1.421-10.3zM651.41 478.724c-0.355-0.71-1.776-5.328-2.486-6.749-0.355-0.71-0.71-1.066-1.066-0.71 0 0-1.776 0.355-3.552 0.355-1.066 0-2.841 0-4.262-0.71-1.421-0.355-2.841-1.421-3.907-2.486s-2.131-2.841-2.841-4.617c-0.71-2.131-1.066-5.328-1.066-8.524v-24.153c0-0.71-0.355-1.066-1.066-1.066h-8.524c-0.71 0-1.066 0.355-1.066 1.066v48.305c0 0.71 0.355 1.066 1.066 1.066h8.169c0.71 0 1.066-0.355 1.066-1.066v-3.907c1.066 1.776 3.552 3.197 5.328 3.907 2.131 1.066 4.262 1.421 8.524 1.421 2.131 0 4.973-0.71 5.328-1.066 0 0 0.71-0.355 0.355-1.066zM691.901 431.484c-3.552-1.421-8.524-2.486-13.497-2.486-8.169 0-14.563 2.486-18.825 7.104s-6.393 11.011-6.393 19.18c0 3.552 0.355 7.104 1.421 10.3s2.486 6.038 4.617 8.169c2.131 2.486 4.617 4.262 7.814 5.683s6.749 2.131 10.656 2.131c2.841 0 4.973 0 7.104-0.355s4.973-1.066 6.393-1.776c0.355 0 0.71-0.355 0.71-1.066-1.066-2.486-1.421-4.262-2.486-6.393-0.355-1.066-1.066-0.71-1.066-0.71-3.197 1.066-6.038 1.421-9.945 1.421-4.617 0-8.169-1.421-10.656-4.617s-3.552-7.104-3.552-12.431c0-6.038 1.421-10.3 4.262-13.142 2.486-2.841 6.393-4.262 11.011-4.262 1.776 0 3.552 0 5.328 0.355 1.421 0.355 3.197 0.71 4.617 1.421 0 0 1.066 0.355 1.066-0.71l2.486-6.393c-0.355-1.066-1.066-1.421-1.066-1.421zM739.852 453.505c0-0.71-1.066-0.71-1.066-0.71h-32.322c0.355-4.973 1.421-8.524 3.907-10.656 2.486-2.486 6.038-3.907 11.011-3.907 7.814 0 11.011 1.421 13.142 2.486 0 0 1.066 0.355 1.066-0.71l2.131-6.038c0.355-1.066 0-1.421-0.355-1.421-2.131-1.066-7.104-3.197-16.339-3.197-4.617 0-8.524 0.71-11.721 1.776-3.197 1.421-6.038 3.197-8.169 5.328s-3.552 4.973-4.617 8.169c-1.066 3.197-1.421 6.749-1.421 10.3s0.355 7.104 1.421 10.3c1.066 3.197 2.486 6.038 4.262 8.524 2.131 2.486 4.617 4.262 7.459 5.683s6.749 2.131 10.656 2.131c3.552 0 6.749-0.71 9.235-1.776 2.131-0.71 3.907-2.486 6.038-4.617 1.421-1.421 3.197-4.617 4.262-7.459 2.486-7.814 1.421-13.852 1.421-14.207zM16.694 350.502l11.721-6.038c-1.421-3.197-2.486-6.393-2.841-9.945s0-7.104 0.71-10.656c2.131-8.524 6.393-14.563 12.787-17.049 6.393-2.841 13.852-2.841 23.087-0.71 8.88 2.131 15.273 6.038 19.535 11.721 4.262 5.328 5.328 12.431 3.197 20.956-1.066 3.907-2.841 7.459-4.973 10.3-2.486 2.841-4.973 5.328-8.169 7.459l7.459 11.366c4.262-2.486 8.169-6.038 11.366-10.656 3.552-4.617 6.038-9.945 7.459-15.983 2.131-8.524 2.131-16.339 0.355-23.087-2.131-6.749-5.683-12.787-11.366-17.404s-12.431-8.169-20.601-10.3c-8.524-2.131-16.339-2.486-23.442-1.066s-13.142 4.973-18.114 9.945c-4.973 4.973-8.524 12.076-11.011 20.601-1.421 5.683-1.776 11.011-1.421 16.339 0.71 5.683 2.131 10.3 4.262 14.207zM14.563 483.341l-1.066-36.584 22.022-0.355 0.71 31.256 11.721-0.355-0.71-31.256 23.797-0.71 1.066 38.715 12.431-0.355-1.421-53.988-82.403 2.131 1.421 51.857 12.431-0.355zM108.332 586.7l-31.612-7.459-4.262-13.497 26.639-8.169-4.617-14.563-78.851 24.153 8.524 27.704c2.841 8.88 7.104 15.273 13.497 19.18 6.393 4.262 13.497 4.973 22.022 2.131 11.011-3.552 17.049-11.011 17.759-23.087l35.519 9.59-4.617-15.983zM65.354 581.727c1.421 4.617 1.421 8.524-0.355 12.076-1.421 3.552-4.617 6.038-9.59 7.814-4.973 1.421-9.235 1.066-12.431-1.066s-5.683-5.683-7.104-9.945l-3.907-12.076 29.125-8.88 4.262 12.076zM110.818 740.495l-13.497-20.956 58.606-37.65-8.169-12.787-58.606 37.65-13.497-20.956-10.656 6.749 34.808 54.699 11.011-6.749zM215.598 769.621l7.104 6.749 7.814-8.169-24.863-23.442-7.814 8.169 7.104 6.749-41.202 43.333-7.104-6.749-7.814 8.169 24.863 23.442 7.814-8.169-7.104-6.749 41.202-43.333zM290.897 892.87l-31.967-18.47 11.366-19.89 27.704 15.983 6.393-10.656-27.704-15.983 17.404-29.836-13.142-7.814-41.202 71.392 45.109 25.929 6.038-10.656zM398.873 871.204l9.235 2.841 3.197-11.011-32.677-9.59-3.197 11.011 9.235 2.841-16.694 57.185-9.235-2.841-3.197 10.656 32.677 9.59 3.197-10.656-9.235-2.841 16.694-57.185zM523.188 946.503l-36.584-1.776 1.066-22.022 31.256 1.421 0.355-11.721-31.256-1.421 1.066-23.797 38.715 1.776 0.355-12.431-53.988-2.486-3.552 82.403 51.857 2.131 0.71-12.076zM668.104 893.935c-2.131-8.524-5.683-15.628-10.656-20.601-4.973-5.328-11.011-8.524-17.759-9.945-7.104-1.421-14.918-1.066-23.442 1.066l-27.704 6.749 19.89 79.917 27.349-6.749c13.497-3.197 23.087-9.235 29.125-17.404 5.328-8.524 6.749-19.535 3.197-33.032zM620.154 935.492l-13.852-55.764 11.721-2.841c9.235-2.131 16.694-1.776 22.732 1.776 5.683 3.197 9.945 9.945 12.431 19.535s1.776 17.049-1.776 22.732c-3.552 5.683-9.945 9.59-19.18 11.721l-12.076 2.841zM242.592 80.205c-3.907-4.617-8.524-7.459-13.497-8.88s-9.945-1.066-14.918 0.355c-4.973 1.421-9.235 4.262-13.497 7.814l-10.656 9.59-17.759-19.89-11.366 9.945 54.343 61.802 22.377-19.535c7.104-6.038 11.011-12.787 12.431-19.89 1.066-7.104-1.421-14.207-7.459-21.311zM218.439 121.762l-20.601-23.442 9.945-8.524c3.552-3.197 7.459-4.973 11.721-4.973 4.262-0.355 7.814 1.776 11.366 5.683 3.552 4.262 4.973 8.169 4.262 12.076s-2.841 7.459-6.749 10.656l-9.945 8.524zM314.339-23.864l-2.841 32.322-12.431 6.038-12.076-25.218-13.852 6.393 35.163 74.589 25.929-12.431c8.169-3.907 14.207-9.235 17.049-15.983 3.197-6.749 2.841-14.207-1.066-22.022-4.973-10.656-13.497-15.273-25.218-14.563l4.617-36.229-15.273 7.104zM315.76 19.469c4.262-2.131 8.169-2.486 12.076-1.421s6.749 3.907 8.88 8.524c2.131 4.617 2.486 8.88 0.71 12.431s-4.617 6.393-8.88 8.524l-11.366 5.328-13.142-27.704 11.721-5.683zM407.753-13.564c1.421 8.524 3.907 15.628 8.169 21.666s9.945 10.3 16.694 13.142c6.749 2.486 14.563 3.197 23.087 2.131 8.524-1.421 15.983-4.262 21.666-8.524 5.683-4.617 9.945-10.3 12.076-17.049 2.486-7.104 2.841-14.563 1.776-23.087-1.421-8.524-3.907-15.628-8.169-21.666s-9.945-10.3-16.694-13.142c-6.749-2.486-14.563-3.197-23.087-2.131-8.524 1.421-15.983 4.262-21.666 8.524-5.683 4.617-9.945 10.3-12.076 17.049-2.486 7.104-3.197 14.563-1.776 23.087zM475.593-23.154c1.421 9.235 0.355 16.694-3.552 22.732-3.552 6.038-9.945 9.59-18.47 11.011s-15.628-0.355-20.956-5.328c-5.328-4.617-8.524-11.721-9.945-20.956s-0.355-16.694 3.552-22.732c3.552-6.038 9.945-9.59 18.47-11.011 8.88-1.421 15.628 0.355 20.956 5.328 5.328 4.617 8.524 11.721 9.945 20.956zM608.433 12.72l-36.584-5.328 3.197-22.732 31.612 4.617 1.776-12.431-31.612-4.617 4.973-34.098-15.273-2.131-11.721 81.693 51.502 7.459 2.131-12.431zM713.568 50.015l-33.743-14.207 8.524-20.246 28.77 12.076 4.617-10.656-28.77-12.076 9.235-22.022 35.519 14.918 4.973-11.366-49.726-20.956-31.967 76.010 47.95 20.246 4.617-11.721zM799.878 28.348v12.076c3.907 0 7.459 0.71 11.011 2.131 3.197 1.421 6.393 3.197 9.59 5.683 3.907 2.841 6.393 6.038 7.459 9.59s0.355 6.749-2.131 9.945c-1.776 2.486-3.907 3.907-6.038 4.262s-4.617 0.355-7.459-0.355c-2.841-0.71-6.393-2.131-10.656-3.907-7.104-3.197-13.142-4.262-18.47-3.552s-9.945 3.552-13.852 8.524c-2.841 3.907-4.617 7.814-4.617 12.431 0 4.262 1.066 8.524 3.197 12.787 2.486 4.262 5.683 7.814 9.945 11.366 7.814 6.038 16.694 9.59 25.929 9.945l0.71-12.076c-3.907-0.355-7.104-1.066-10.3-2.486-2.841-1.066-6.038-2.841-8.524-4.973-3.552-2.486-5.683-5.328-6.749-8.524-1.066-2.841-0.355-5.683 1.421-8.169 2.131-2.841 4.617-3.907 7.814-3.552s7.814 1.776 13.497 3.907c7.814 3.197 14.207 4.617 20.246 4.262 5.683-0.355 11.011-3.552 15.628-9.59 3.552-4.262 5.328-8.88 5.328-13.852s-1.066-9.235-3.552-13.852c-2.486-4.262-6.393-8.524-10.656-12.076s-8.88-6.038-13.852-7.459c-4.973-2.131-9.945-2.841-14.918-2.486zM897.554 115.724l-3.197 11.721c3.907 1.066 7.104 2.841 9.945 4.617 2.841 2.131 5.328 4.617 7.814 7.814 2.841 3.907 4.617 7.459 4.617 11.011s-1.421 6.393-4.617 8.88c-2.486 1.776-4.617 2.486-6.749 2.486s-4.617-0.71-7.104-2.131c-2.486-1.421-5.683-3.552-9.235-6.393-6.038-4.617-11.721-7.459-17.049-8.169s-10.656 0.71-15.628 4.617c-3.907 2.841-6.393 6.393-7.814 10.656-1.066 4.262-1.066 8.524 0 13.142s3.552 8.88 6.749 13.497c6.038 8.169 13.497 13.497 22.732 16.339l3.552-11.366c-3.552-1.421-6.749-2.841-9.235-4.973-2.486-1.776-4.973-4.262-7.104-7.104-2.486-3.552-3.907-6.749-4.262-9.945s1.066-5.683 3.552-7.814c2.841-2.131 5.683-2.486 8.524-1.421s7.104 3.552 12.076 7.459c6.393 5.328 12.787 8.169 18.47 9.235s11.366-0.71 17.404-5.328c4.262-3.552 7.459-7.459 8.524-11.721 1.421-4.617 1.421-9.235 0-14.207s-3.907-9.59-7.459-14.207c-3.197-4.262-7.104-7.814-11.366-10.656-3.907-3.197-8.524-4.973-13.142-6.038zM974.984 249.274l3.907 8.88 10.656-4.617-13.852-31.256-10.656 4.617 3.907 8.88-54.699 24.153-3.907-8.88-10.3 4.617 13.852 31.256 10.3-4.617-3.907-8.88 54.699-24.153zM972.498 331.322c-8.524 1.421-15.628 3.907-21.666 8.169s-10.3 9.945-12.787 16.694c-2.486 6.749-3.197 14.563-2.131 23.087 1.421 8.524 4.262 15.983 8.88 21.666s10.3 9.945 17.049 12.076c7.104 2.486 14.563 2.841 23.087 1.421s15.628-3.907 21.666-8.169c6.038-4.262 10.3-9.945 12.787-16.694s3.197-14.563 2.131-23.087c-1.421-8.524-4.262-15.983-8.524-21.666-4.617-5.683-10.3-9.59-17.049-12.076-7.104-2.131-14.918-2.841-23.442-1.421zM982.798 399.162c-9.235 1.421-16.694 0.355-22.732-3.197s-9.59-9.945-11.011-18.47c-1.421-8.524 0.355-15.628 4.973-20.956s11.721-8.524 20.956-9.945 16.694-0.355 22.732 3.197c6.038 3.552 9.59 9.59 11.011 18.47s-0.355 15.628-4.973 20.956c-4.617 5.328-11.721 8.524-20.956 9.945zM943.018 478.368l-2.841 17.049 53.633 50.436v0.355l-60.382-10.656-2.486 13.852 81.337 13.852 2.841-17.049-53.988-50.436v-0.355l60.737 10.656 2.486-13.852-81.337-13.852zM947.28 678.693l15.273-29.836 18.825 2.131 7.104-14.207-87.731-8.88-7.104 13.852 59.316 65.354 7.459-14.563-13.142-13.852zM950.121 647.437l-11.366 22.732-27.704-28.060 39.070 5.328zM888.319 770.686l-23.797 26.284 9.235 8.524 34.098-37.65-61.092-55.409-10.3 11.366 51.857 46.884zM764.359 851.668c3.197-1.776 5.328-4.262 6.393-6.749 1.066-2.841 0.355-6.038-1.776-9.945-3.907-7.104-9.59-8.88-16.694-4.973s-8.524 9.59-4.617 16.694c4.262 7.104 9.59 8.88 16.694 4.973zM121.473 208.783c3.197-1.776 5.328-4.262 6.393-6.749 1.066-2.841 0.355-6.038-1.776-9.945-3.907-7.104-9.59-8.88-16.694-4.973s-8.524 9.59-4.617 16.694c4.262 7.104 9.59 8.88 16.694 4.973z" />
<glyph unicode="&#xe93d;" glyph-name="sfdc-icon-social-blog" horiz-adv-x="1023" d="M511.467 959.29c-282.373 0-511.467-229.095-511.467-511.467s229.095-511.467 511.467-511.467 511.467 229.095 511.467 511.467c0 135.681-53.988 265.679-149.888 361.579-95.9 96.255-225.898 149.888-361.579 149.888v0zM398.163 274.492c-33.387 0-60.382 26.994-60.382 60.382s26.994 60.382 60.382 60.382c33.387 0 60.382-26.994 60.382-60.382s-26.994-60.382-60.382-60.382v0zM534.554 334.873c0 75.299-61.092 136.391-136.391 136.391v75.299c116.856-0.355 211.691-94.835 211.691-211.691h-75.299zM685.863 334.873c-0.355 158.768-128.932 286.99-287.345 287.345v75.299c200.325-0.355 362.644-162.675 362.644-362.644h-75.299z" />
<glyph unicode="&#xe93e;" glyph-name="sflive-keynote" horiz-adv-x="1023" d="M712.502 64.222h-401.715c-20.246 0-36.584-16.339-36.584-36.584s16.339-36.584 36.584-36.584h401.715c20.246 0 36.584 16.339 36.584 36.584s-16.339 36.584-36.584 36.584zM954.384 904.591h-885.833c-38.005 0-68.551-30.546-68.551-68.551v-630.099c0-37.65 30.546-68.551 68.551-68.551h885.833c37.65 0 68.551 30.546 68.551 68.551v630.099c0 38.005-30.546 68.551-68.551 68.551zM949.766 283.727h-876.953v547.696h876.953v-547.696z" />
<glyph unicode="&#xe93f;" glyph-name="sflive-productkeynote" horiz-adv-x="1023" d="M0 160.122h127.867v-191.8l191.8 191.8h511.467v575.401h-831.134v-575.401zM191.8 927.323v-127.867h703.267v-511.467h127.867v639.334h-831.134z" />
<glyph unicode="&#xe940;" glyph-name="sflive-session" horiz-adv-x="1023" d="M411.305 377.851h8.88c-2.486 2.131-4.973 3.907-6.749 6.038-69.972 63.223-123.249 185.762-123.249 284.859 0 140.298 114.725 232.647 223.412 232.647 108.332 0 217.374-99.807 217.374-240.105 0-99.097-58.961-218.084-131.774-278.821 14.918-57.185 96.966-76.010 266.389-122.184 187.893-51.502 155.571-179.369 155.216-265.324h-1015.12c-0.71 85.955-47.24 213.467 141.009 265.324 164.451 44.753 246.499 63.933 264.613 117.566zM420.185 377.851h-8.88c0.71 2.131 1.421 3.907 1.776 6.038 2.131-2.131 4.617-4.262 7.104-6.038z" />
<glyph unicode="&#xe941;" glyph-name="sfdc-icon-product-e-commerce" horiz-adv-x="1023" d="M513.243 959.29c-282.373 0-511.467-229.095-511.467-511.467s229.095-511.467 511.467-511.467 511.467 229.095 511.467 511.467-229.095 511.467-511.467 511.467zM393.901 155.86c-19.18 0-35.163 15.983-35.163 35.163s15.628 35.163 34.808 35.163c19.18 0 35.163-15.983 35.163-35.163 0.355-19.535-15.628-35.163-34.808-35.163zM654.962 156.215c-19.18 0-35.163 15.983-35.163 35.163s15.628 35.163 34.808 35.163c19.18 0 35.163-15.983 35.163-35.163 0-19.535-15.628-35.163-34.808-35.163zM742.693 471.62c0 0-0.71-72.813-73.168-72.813-57.895 0-226.964 0-292.318 0l13.852-72.813c7.459-26.284 29.48-23.797 29.48-23.797s163.741 0 274.558 0.355c3.552 0 5.683-3.552 4.617-6.749l-3.552-37.65c-1.066-2.841-3.907-4.617-6.749-4.617h-273.848c0 0-62.157-8.88-76.365 72.813l-60.026 320.377c-7.814 23.442-27.349 24.863-27.349 24.863l-26.994 0.355c-2.841 0-4.973 2.131-4.973 4.973v38.715c0 2.841 2.131 4.973 4.973 4.973h24.863c0 0 58.606 2.841 81.337-73.523l0.71-3.197c91.638 0 347.727 0 347.727 0s72.458-0.355 72.458-73.523l-9.235-98.742zM678.404 594.514c0 0-254.313 0-338.492 0l27.704-146.692c63.223 0 281.307 0.355 301.553 0.355 23.442 0 24.153 23.442 24.153 23.442l9.235 98.031c0 24.863-24.153 24.863-24.153 24.863zM656.738 539.105l-3.197-37.294c-1.066-2.841-3.907-4.973-6.749-4.973h-237.264c-2.486 0-4.617 1.776-4.973 4.262l-6.038 39.070c-0.355 2.841 1.776 5.683 4.973 5.683h248.63c3.552 0 5.683-3.552 4.617-6.749z" />
<glyph unicode="&#xe942;" glyph-name="sfdc-icon-einstein-mobius" horiz-adv-x="1023" d="M710.016 595.58c45.109 0 81.337 36.584 81.337 81.337 0 45.109-36.584 81.337-81.337 81.337-45.109 0-81.337-36.584-81.337-81.337s36.584-81.337 81.337-81.337zM710.016 714.212c20.601 0 37.294-16.694 37.294-37.294s-16.694-37.294-37.294-37.294c-20.601 0-37.294 16.694-37.294 37.294 0.355 20.601 17.049 37.294 37.294 37.294zM826.517 707.818c-5.683 0.71-11.011-3.197-11.721-8.88s3.197-11.011 8.88-11.721c103.004-13.852 180.434-102.649 180.434-206.718 0-115.080-93.414-208.494-208.494-208.494-3.197 0-6.749 0-9.945 0.355 15.983 26.639 24.508 56.475 24.863 87.020 2.841 83.113-22.377 157.347-40.491 211.335l-1.776 5.328c-1.776 5.328-7.814 8.524-13.142 6.749s-8.524-7.814-6.749-13.142l1.776-5.328c17.759-52.567 42.267-125.025 39.426-204.232v-0.355c0-30.191-9.945-59.316-26.994-84.179-45.109 9.945-99.097 43.688-143.85 133.55-1.776 3.907-27.704 60.737-68.906 135.326 21.666 22.377 44.753 44.043 69.972 64.289 4.617 3.552 5.328 10.3 1.421 14.563-3.552 4.617-10.3 5.328-14.563 1.421-24.153-19.535-46.529-40.136-67.485-61.447-21.666 38.005-46.529 79.562-74.234 120.763-6.393 10.3-13.852 20.601-22.022 30.546 37.294 36.229 64.999 45.819 112.949 45.819 23.797 0 45.819-4.262 65.709-12.076 5.328-2.131 11.366 0.355 13.497 5.683s-0.355 11.366-5.683 13.497c-22.377 9.235-47.24 13.852-73.523 13.852-56.119 0-88.441-13.497-126.801-50.792-41.557 43.688-100.873 79.562-168.358 73.168-23.442-2.131-45.464-7.814-65.354-15.983-6.749 6.749-15.983 11.011-26.284 11.011-20.601 0-37.294-16.694-37.294-37.294 0-4.617 1.066-9.235 2.486-13.142-38.36-36.584-60.737-88.796-60.737-149.888 0-17.404 3.197-34.808 8.169-51.147-10.656-8.88-20.956-19.535-29.836-30.901-30.901-39.426-48.66-90.572-48.66-139.588 0-99.452 80.982-180.434 180.434-180.434 8.169 0 16.339 0.71 24.508 1.776 31.612-66.775 99.452-112.949 177.948-112.949 80.627 0 143.85 38.005 172.975 98.031 20.956-2.486 42.267-3.907 63.578-3.907 47.595 0 95.545 19.18 131.063 52.567 6.749 6.393 13.142 13.142 18.825 20.601 7.814-1.066 15.628-1.421 23.797-1.421 126.446 0 229.45 103.004 229.45 229.45-0.71 114.37-85.955 212.046-199.259 227.319zM447.179 672.655c28.77-42.622 54.699-85.955 76.72-125.025-17.759-18.825-34.098-38.005-49.726-57.185-2.486 2.131-4.617 3.907-7.104 5.683-6.749 6.749-55.764 53.988-138.878 79.206 22.022 31.612 47.595 64.999 78.141 100.162 7.814 8.88 14.918 17.049 21.666 24.508 7.104-8.88 13.497-18.114 19.18-27.349v0zM545.21 206.296c-70.682 11.011-139.233 36.939-203.521 77.075 14.207 16.694 28.415 35.163 43.333 54.699 3.907-1.421 8.169-2.486 12.787-2.486 20.601 0 37.294 16.694 37.294 37.294 0 8.524-2.841 16.339-7.459 22.377 15.628 20.956 31.612 42.622 48.66 64.289 46.174-50.081 78.496-137.812 78.496-195.707 0-20.956-3.552-40.136-9.59-57.54zM209.204 392.413c-26.284 27.704-51.502 57.895-74.944 90.928-9.945 14.918-20.601 34.808-28.77 56.83 23.087 16.339 49.016 25.929 76.365 27.704h0.355c13.142 1.421 25.929 2.131 38.36 2.131 26.284 0 51.147-2.841 73.523-7.814-34.453-52.923-65.354-110.818-84.889-169.779zM315.405 556.864c86.665-24.508 136.391-74.944 137.102-75.655l1.421-1.421c2.486-1.776 4.617-3.552 7.104-5.683-17.759-22.377-34.453-44.753-50.436-66.42-3.907 1.421-8.169 2.131-12.787 2.131-20.601 0-37.294-16.694-37.294-37.294 0-8.524 2.841-15.983 7.459-22.377-15.273-20.246-29.836-39.070-44.398-55.764-34.098 22.732-66.775 49.726-98.031 80.627 15.628 50.792 42.977 111.173 89.862 181.855zM93.769 598.421c0 49.726 15.983 93.769 46.174 126.801 2.131 2.131 4.262 4.617 6.393 6.749 6.038-4.617 13.852-7.104 22.022-7.104 20.601 0 37.294 16.694 37.294 37.294 0 2.486-0.355 4.973-0.71 7.459 17.759 7.104 36.939 11.721 57.54 13.497 4.617 0.355 9.235 0.71 13.852 0.71 54.699 0 103.004-30.901 137.812-67.84-7.459-8.169-15.273-17.049-23.797-26.639-27.349-31.612-56.119-68.196-83.469-107.976-36.584 8.524-78.851 12.787-126.446 7.459-28.77-2.131-56.475-11.721-81.337-27.704-3.197 12.431-5.328 25.218-5.328 37.294zM182.565 217.307c-87.731 0-159.478 71.392-159.478 159.478 0 44.753 15.983 90.928 44.398 126.801 6.393 8.169 13.497 15.983 20.956 22.732 11.011-27.349 24.508-48.305 28.77-54.699 26.639-37.294 55.409-71.392 85.245-101.938-7.814-28.77-13.142-57.895-14.207-87.020v-0.355c0-22.377 3.907-43.688 10.656-63.933-5.328-0.71-11.011-1.066-16.339-1.066zM209.204 281.951c0.71 20.246 3.907 43.688 10.656 70.682 28.77-27.704 58.961-52.212 90.217-73.168-12.787-13.497-25.573-25.218-38.36-34.808-15.983-10.656-33.387-18.47-51.502-22.732-7.104 18.47-11.011 38.715-11.011 60.026zM385.021 106.134c-68.196 0-127.512 39.070-156.637 96.255 19.535 4.973 38.005 13.497 55.054 24.863l0.355 0.355c14.918 11.011 29.48 24.508 44.043 40.136 65.709-41.557 136.036-68.906 208.849-80.982-26.994-50.436-81.337-80.627-151.664-80.627zM621.575 200.258c-18.47 0-37.294 1.066-55.409 3.197 6.038 18.47 9.59 38.715 9.59 60.382 0 63.223-34.453 158.058-86.31 212.401 14.207 17.759 29.48 35.163 45.109 52.567 40.136-72.813 64.644-127.156 64.999-128.222l0.355-0.355c38.715-77.43 89.152-125.736 148.468-142.429-31.612-34.808-77.43-57.54-126.801-57.54z" />
<glyph unicode="&#xe943;" glyph-name="sfdc-icon-left-arrow" horiz-adv-x="1023" d="M787.446-5.394c4.617-4.617 4.617-12.787 0-17.404l-35.519-35.519c-4.973-4.973-12.787-4.973-17.759 0l-497.615 497.615c-4.973 4.973-4.973 12.787 0 17.759l497.615 497.615c4.973 4.973 12.787 4.973 17.759 0l35.519-35.519c4.973-4.973 4.973-12.787 0-17.759l-444.337-444.692c-4.973-4.973-4.973-12.787 0-17.759l444.337-444.337z" />
<glyph unicode="&#xe944;" glyph-name="sfdc-icon-social-wechat-inverted" horiz-adv-x="1023" d="M710.726 599.131c-94.835-4.973-177.593-33.743-244.723-98.742-67.84-65.709-98.742-146.336-90.217-246.144-36.939 4.617-71.037 9.59-104.78 12.431-11.721 1.066-25.573-0.355-35.519-6.038-33.032-18.47-64.644-39.781-102.293-63.223 6.749 31.256 11.366 58.25 19.18 84.534 5.683 19.18 3.197 29.836-14.563 42.622-114.015 80.627-161.965 201.035-126.091 324.995 33.387 114.725 115.080 184.341 225.898 220.57 151.664 49.371 321.798-1.066 413.791-121.118 33.387-43.688 53.988-92.348 59.316-149.888v0zM273.848 637.492c0.71 22.732-18.825 42.977-42.267 43.688-23.797 0.71-43.688-17.404-44.398-41.202s17.404-42.977 41.557-43.688c24.153-0.355 44.043 18.114 45.109 41.202v0zM501.522 681.535c-23.442-0.355-43.333-20.246-42.977-42.977 0.355-23.442 19.89-41.912 44.043-41.912 24.153 0.355 42.622 18.825 42.267 42.977 0 23.442-19.18 42.267-43.333 41.912zM924.193 7.037c-30.191 13.497-57.54 33.387-87.020 36.584-29.125 3.197-60.026-13.852-90.572-17.049-93.059-9.59-176.882 16.339-245.433 80.272-131.063 121.118-112.239 306.88 39.426 406.332 134.615 88.086 332.099 58.961 427.288-63.578 82.758-106.911 73.168-248.63-28.060-338.492-29.125-25.929-39.781-47.24-20.956-81.693 2.841-6.393 3.197-14.563 5.328-22.377v0zM581.794 338.425c19.18 0 34.808 14.918 35.519 33.743 0.71 19.89-15.273 36.939-35.519 36.939-19.89 0-36.584-17.049-35.874-36.584 1.066-18.825 16.694-34.098 35.874-34.098v0zM802.364 409.107c-18.47 0-34.453-14.918-35.163-33.743-0.71-19.89 14.918-36.584 34.808-36.584 19.18 0 34.453 14.563 35.163 33.743 0.71 19.89-14.918 36.229-34.808 36.584z" />
<glyph unicode="&#xe945;" glyph-name="sfdc-icon-social-wechat" horiz-adv-x="1023" d="M559.062 421.539c-13.497 0-24.863-11.721-24.508-24.863 0.71-12.787 11.366-23.087 24.508-23.087s23.797 10.3 24.153 23.087c0.71 13.142-10.3 24.863-24.153 24.863zM709.306 421.539c-12.431 0-23.442-10.3-23.797-23.087-0.355-13.497 10.3-24.863 23.797-24.863 13.142 0 23.442 9.945 23.797 23.087 0.355 13.497-10.3 24.508-23.797 24.863zM505.074 549.050c16.339 0.355 29.125 12.787 28.77 29.125 0 15.983-13.142 28.77-29.48 28.415-15.983-0.355-29.48-13.852-29.125-29.125 0.355-15.628 13.497-28.415 29.836-28.415zM511.467 960.355c-282.373 0-511.467-229.095-511.467-511.467s229.095-511.467 511.467-511.467 511.467 229.095 511.467 511.467c0 282.728-229.095 511.467-511.467 511.467zM347.371 324.573c-7.814 0.71-17.404-0.355-24.153-4.262-22.377-12.431-44.043-26.994-69.616-42.977 4.617 21.311 7.814 39.781 13.142 57.54 3.907 13.142 2.131 20.246-9.945 29.125-77.786 55.054-110.108 136.746-85.955 221.281 22.732 78.141 78.496 125.381 153.795 150.243 103.359 33.743 219.149-0.71 281.662-82.403 22.732-29.836 36.584-62.868 40.491-101.938-64.644-3.552-120.763-23.087-166.582-67.13-46.174-44.753-67.13-99.807-61.447-167.648-25.218 2.841-48.305 6.393-71.392 8.169zM802.719 218.728c-19.89-17.759-26.994-32.322-14.207-55.764 1.776-4.262 2.131-9.945 3.552-15.273-20.601 9.235-39.070 22.732-59.316 24.863-19.89 2.131-40.846-9.59-61.802-11.721-63.223-6.393-120.408 11.011-166.937 54.699-89.152 82.403-76.365 208.849 26.994 276.69 91.638 60.026 226.253 40.136 290.897-43.333 56.475-72.458 50.081-169.068-19.18-230.16zM320.733 606.946c-16.339 0.355-29.836-11.721-30.191-28.060s11.721-29.125 28.415-29.836c16.339-0.355 29.836 12.431 30.546 28.060 0.355 15.273-12.787 29.125-28.77 29.836z" />
<glyph unicode="&#xe946;" glyph-name="sfdc-icon-social-xing-inverted" horiz-adv-x="1023" d="M155.571 754.348c-8.88 0-16.339-3.197-20.246-9.235-3.907-6.393-3.197-14.563 0.71-22.732l99.807-172.62v-0.71l-156.637-276.69c-4.262-8.169-3.907-16.339 0-22.732 3.907-6.038 10.3-9.945 19.18-9.945h147.402c22.022 0 32.677 14.918 40.136 28.415 0 0 153.44 271.007 159.123 281.662-0.71 1.066-101.583 176.882-101.583 176.882-7.459 13.142-18.47 27.704-41.202 27.704h-146.692zM775.37 956.448c-22.022 0-31.612-13.852-39.426-28.060 0 0-317.891-563.68-328.191-582.149 0.71-1.066 209.559-384.666 209.559-384.666 7.459-13.142 18.47-28.060 41.202-28.060h147.402c8.88 0 15.983 3.197 19.535 9.59 3.907 6.393 3.907 14.563-0.355 22.732l-208.139 380.049v1.066l326.771 577.532c4.262 8.169 4.262 16.339 0.355 22.732-3.907 6.038-10.656 9.59-19.535 9.59l-149.178-0.355z" />
<glyph unicode="&#xe947;" glyph-name="sfdc-icon-social-xing" horiz-adv-x="1023" d="M515.019 960.355c-282.373 0-511.467-229.095-511.467-511.467s229.095-511.467 511.467-511.467 511.467 229.095 511.467 511.467c0 282.728-229.095 511.467-511.467 511.467zM349.147 322.442h-90.217c-5.328 0-9.235 2.486-11.721 6.038-2.486 3.907-2.486 8.88 0 13.852l95.9 169.068v0.355l-61.092 105.49c-2.486 4.973-2.841 9.945-0.355 13.852 2.486 3.552 7.104 5.683 12.431 5.683h89.507c13.852 0 20.601-8.88 25.218-17.049 0 0 61.802-107.621 62.157-107.976-3.552-6.393-97.321-172.265-97.321-172.265-4.617-7.814-11.366-17.049-24.508-17.049zM775.725 740.851l-199.614-353.054v-0.71l127.156-232.291c2.486-4.973 2.486-9.945 0.355-13.852s-6.393-6.038-12.076-6.038h-90.217c-13.852 0-20.601 9.235-25.218 17.049 0 0-127.512 234.422-128.222 235.133 6.393 11.366 200.68 355.896 200.68 355.896 4.617 8.524 10.656 17.049 24.153 17.049l91.283 0.355c5.328 0 9.59-2.131 12.076-6.038 2.131-3.197 2.131-8.169-0.355-13.497z" />
<glyph unicode="&#xe948;" glyph-name="sfdc-icon-download" horiz-adv-x="1023" d="M511.467 960c-282.728 0-511.822-229.45-511.822-511.822s229.095-512.178 511.822-512.178 511.822 229.45 511.822 511.822-229.095 512.178-511.822 512.178zM415.922 506.428v158.058h191.090v-158.058h116.146l-211.335-185.407-211.335 185.407h115.435zM762.583 270.94v-39.426h-501.877v114.015h39.426v-74.589h423.026v74.589h39.426v-74.589z" />
<glyph unicode="&#xe949;" glyph-name="sfdc-icon-email" horiz-adv-x="1023" d="M511.467 960c-282.728 0-511.822-229.45-511.822-511.822s229.45-512.178 511.822-512.178 511.822 229.45 511.822 511.822-229.095 512.178-511.822 512.178zM248.985 628.612h524.964c-1.776-0.71-3.197-1.776-4.973-2.486l-257.865-180.789-258.93 180.789c-1.066 0.71-1.776 1.421-3.197 1.776v0.71zM248.985 569.651l144.916-100.873-144.916-164.451v265.324zM281.307 267.033l152.375 173.686 64.289-44.753c1.066-0.71 1.776-1.066 2.841-1.776 0 0 0.355-0.355 0.71-0.355 0.71-0.355 1.776-0.71 2.131-1.066 0.71 0 1.066-0.355 1.421-0.355 1.066 0 1.776-0.355 2.131-0.355 0.71-0.355 1.066-0.355 1.421-0.355 1.066-0.355 1.776-0.355 2.841-0.355 1.421 0 2.131 0.355 3.197 0.355 0.71 0.355 1.066 0.355 1.421 0.355 1.066 0.355 1.776 0.355 2.131 0.71 0.71 0 1.066 0.355 1.421 0.355 0.71 0.355 1.776 0.71 2.131 1.066 0.355 0 0.355 0.355 0.71 0.355 1.066 0.71 1.776 1.421 2.841 1.776l63.933 44.753 153.085-174.396h-461.031zM773.949 303.972l-144.916 164.806 144.916 101.938v-266.744z" />
<glyph unicode="&#xe94a;" glyph-name="sfdc-icon-product-industries-comms-media" horiz-adv-x="1023" d="M513.243 957.159c-282.373 0-511.467-229.095-511.467-511.467s229.095-511.467 511.467-511.467 511.467 229.095 511.467 511.467-229.095 511.467-511.467 511.467zM622.285 669.103c-1.776 1.776-1.776 4.973 0 6.749l27.704 27.349c1.776 1.776 4.973 1.776 7.104 0 35.163-37.294 54.699-85.6 54.699-136.746s-19.535-99.452-54.699-136.746c-1.776-2.131-4.973-2.131-7.104 0l-27.704 27.349c-1.776 1.776-1.776 4.973 0 6.749 26.284 28.060 40.491 64.289 40.491 102.649 0.355 38.715-14.207 74.944-40.491 102.649zM513.243 615.47c26.994 0 48.66-21.666 48.66-48.66s-21.666-48.66-48.66-48.66-48.66 21.666-48.66 48.66 21.666 48.66 48.66 48.66zM376.497 703.556l27.704-27.349c1.776-1.776 1.776-4.973 0-6.749-26.284-28.060-40.491-64.289-40.491-102.649s14.207-74.589 40.491-102.649c1.776-1.776 1.776-4.973 0-6.749l-27.704-27.349c-1.776-1.776-4.973-1.776-7.104 0-35.163 37.294-54.699 85.6-54.699 136.746s19.535 99.452 54.699 136.746c1.776 1.776 4.973 1.776 7.104 0zM281.662 341.977c-58.961 60.382-91.283 140.298-91.283 224.832s32.322 164.096 91.283 224.832c1.776 1.776 4.973 1.776 7.104 0l27.704-27.704c1.776-1.776 1.776-4.973 0-6.749-49.726-51.502-77.075-118.632-77.075-190.379 0-73.168 28.415-142.074 80.272-193.576l-30.901-30.901c-2.131-2.131-5.328-2.131-7.104-0.355zM710.371 98.32h-47.24c-1.066 0-2.131 0.355-3.197 1.066l-146.336 118.277c-1.776 1.421-4.262 1.421-6.038 0l-146.692-118.277c-0.71-0.71-1.776-1.066-3.197-1.066h-47.24c-3.552 0-6.038 3.552-4.617 6.749l153.085 353.765c0.71 1.776 2.486 2.841 4.617 2.841h94.835c1.776 0 3.552-1.066 4.617-2.841l152.375-353.765c0.71-2.841-1.421-6.749-4.973-6.749zM744.824 341.977c-1.776-1.776-4.973-1.776-7.104 0l-27.349 27.704c-1.776 1.776-1.776 4.973 0 6.749 49.726 51.502 77.075 118.632 77.075 190.379s-27.349 138.878-77.075 190.379c-1.776 1.776-1.776 4.973 0 6.749l27.349 27.704c1.776 1.776 4.973 1.776 7.104 0 58.961-60.382 91.283-140.298 91.283-224.832s-32.322-164.096-91.283-224.832zM588.542 275.557c-1.421 2.841-4.973 3.907-7.459 1.776l-27.349-22.022c-2.486-1.776-2.486-5.683 0-7.459l56.119-45.464c3.907-3.197 9.59 1.066 7.459 5.683l-28.77 67.485zM466.359 254.957l-27.704 21.666c-2.486 2.131-6.393 1.066-7.459-1.776l-28.77-67.13c-2.131-4.617 3.552-8.88 7.459-5.683l56.475 45.464c2.486 1.776 2.486 5.683 0 7.459zM564.745 330.966l-34.098 79.206c-0.71 1.776-2.486 2.841-4.617 2.841h-30.901c-1.776 0-3.552-1.066-4.617-2.841l-34.808-80.272c-0.71-2.131-0.355-4.262 1.421-5.683l50.081-39.426c1.776-1.421 4.262-1.421 6.038 0l50.081 40.136c1.776 1.776 2.131 4.262 1.421 6.038z" />
<glyph unicode="&#xe94b;" glyph-name="sfdc-icon-product-industries-life-sciences" horiz-adv-x="1023" d="M362.289 649.568c0 33.743-27.349 61.092-61.092 61.092s-61.092-27.349-61.092-61.092c0-33.743 27.349-61.092 61.092-61.092 12.787 0 24.863 3.907 34.453 10.656 0.355 0.355 0.71 0.355 1.066 0.71 15.628 11.721 25.573 29.48 25.573 49.726zM264.613 223.345c0-33.743 27.349-61.092 61.092-61.092s61.092 27.349 61.092 61.092c0 9.235-2.131 17.759-5.683 25.573l-11.011-14.563c-4.973-6.393-12.076-9.59-19.18-9.59-5.328 0-10.3 1.776-14.918 4.973-10.656 8.169-12.787 23.442-4.617 34.098l13.142 17.049c-6.038 1.776-12.076 2.841-18.825 2.841-33.743 0.355-61.092-26.994-61.092-60.382zM513.243 957.159c-282.373 0-511.467-229.095-511.467-511.467s229.095-511.467 511.467-511.467 511.467 229.095 511.467 511.467-229.095 511.467-511.467 511.467zM776.436 235.421c-67.13 0-121.829 54.699-121.829 121.829 0 5.328 0.355 10.3 1.066 15.273l-50.081 16.339c-19.89-40.136-61.447-68.196-109.397-68.196-18.114 0-35.519 3.907-51.147 11.366l-32.322-42.267c14.207-18.47 22.732-41.557 22.732-66.775 0-60.382-49.016-109.752-109.752-109.752-60.382 0-109.752 49.016-109.752 109.752 0 60.382 49.016 109.752 109.752 109.752 17.759 0 34.453-4.262 49.371-11.721l30.546 39.781c-19.535 21.666-31.256 50.081-31.256 81.693 0 23.797 6.749 45.819 18.825 64.644l-46.174 42.622c-13.852-6.393-29.48-9.945-45.819-9.945-60.382 0-109.752 49.016-109.752 109.752 0 60.382 49.016 109.752 109.752 109.752 60.382 0 109.752-49.016 109.752-109.752 0-26.284-9.235-50.436-24.863-69.261l40.491-37.65c19.89 13.852 43.688 21.666 69.616 21.666 67.13 0 121.829-54.699 121.829-121.829 0-2.131 0-4.262-0.355-6.749l53.278-17.404c21.311 36.229 60.382 60.382 105.135 60.382 67.13 0 121.829-54.699 121.829-121.829s-54.343-121.473-121.473-121.473zM776.436 430.418c-40.136 0-73.168-32.677-73.168-73.168 0-40.136 32.677-73.168 73.168-73.168 40.136 0 73.168 32.677 73.168 73.168s-33.032 73.168-73.168 73.168zM516.44 426.156c-4.973-5.328-11.366-7.814-17.759-7.814-6.038 0-11.721 2.131-16.694 6.393l-52.212 48.66c-4.262-9.235-6.749-19.535-6.749-30.546 0-40.136 32.677-73.168 73.168-73.168 40.136 0 73.168 32.677 73.168 73.168 0 40.136-32.677 73.168-73.168 73.168-11.721 0-22.732-2.841-32.322-7.459l51.502-47.595c9.59-9.59 10.3-25.218 1.066-34.808zM336.716 600.197c-0.355-0.355-0.71-0.355-1.066-0.71 0.71 0.355 0.71 0.71 1.066 0.71z" />
<glyph unicode="&#xe94c;" glyph-name="sfdc-icon-product-industries-manufacturing" horiz-adv-x="1023" d="M681.601 728.774c-51.857 0-94.124-42.267-94.124-94.124s42.267-94.124 94.124-94.124c51.857 0 94.124 42.267 94.124 94.124 0 52.212-42.267 94.124-94.124 94.124zM681.601 597.356c-20.601 0-37.65 16.694-37.65 37.65 0 20.601 16.694 37.65 37.65 37.65s37.65-16.694 37.65-37.65c0-20.956-16.694-37.65-37.65-37.65zM513.243 957.159c-282.373 0-511.467-229.095-511.467-511.467s229.095-511.467 511.467-511.467 511.467 229.095 511.467 511.467-229.095 511.467-511.467 511.467zM434.392 505.362c-61.802 1.421-115.435-45.109-122.184-106.556-8.524-77.075 56.119-141.719 133.195-133.195 61.447 6.749 107.976 60.382 106.556 122.184-0.355 12.431-2.486 24.863-6.749 36.584-0.71 2.486 0.355 4.973 2.841 6.038l36.229 14.207c2.486 1.066 5.328-0.355 6.393-2.841 6.393-18.114 9.945-37.294 9.945-56.83 0-93.059-76.010-169.068-169.068-169.068-96.966 0-175.462 82.403-168.713 180.789 6.038 88.086 80.272 157.347 168.713 157.347 19.535 0 38.715-3.197 56.83-9.945 2.486-1.066 3.907-3.907 2.841-6.393l-14.207-36.229c-1.066-2.486-3.552-3.552-6.038-2.841-11.366 4.262-23.797 6.393-36.584 6.749zM469.2 384.955c0-20.601-16.694-37.65-37.65-37.65s-37.65 16.694-37.65 37.65c0 20.601 16.694 37.65 37.65 37.65s37.65-17.049 37.65-37.65zM751.928 357.96c0-2.841-1.066-6.038-3.552-6.038h-38.715c-2.486 0-4.617-1.421-4.973-3.907-2.841-26.639-9.945-51.857-20.601-75.655-1.066-2.131 0-4.973 2.131-6.038l38.715-22.377c2.486-1.421 3.197-4.262 1.776-6.749l-19.535-33.743c-1.421-2.486-4.262-3.197-6.749-1.776l-38.715 22.377c-2.131 1.421-4.973 0.71-6.393-1.421-17.049-23.442-37.65-44.398-61.092-61.802-2.131-1.421-2.486-4.262-1.421-6.393l22.022-38.005c1.421-2.486 0.71-5.328-1.776-6.749l-33.743-19.535c-2.486-1.421-5.328-0.71-6.749 1.776l-21.666 37.65c-1.421 2.131-3.907 3.197-6.393 2.131-26.284-12.076-54.699-20.246-84.179-23.442-2.486-0.355-4.262-2.486-4.262-4.973v-42.267c0-2.841-2.131-4.973-4.973-4.973h-39.070c-2.841 0-4.973 2.131-4.973 4.973v42.267c0 2.486-1.776 4.617-4.262 4.973-29.48 3.197-57.895 10.656-84.534 23.087-2.131 1.066-4.973 0.355-6.393-2.131l-21.311-36.939c-1.421-2.486-4.262-3.197-6.749-1.776l-33.743 19.535c-2.486 1.421-3.197 4.262-1.776 6.749l21.666 37.294c1.066 2.131 0.71 4.973-1.421 6.393-11.366 8.524-22.377 18.114-32.677 28.415-10.656 10.656-19.89 22.022-28.415 33.743-1.421 2.131-4.262 2.486-6.393 1.421l-38.005-22.022c-2.486-1.421-5.328-0.71-6.749 1.776l-19.535 33.743c-1.421 2.486-0.71 5.328 1.776 6.749l38.36 22.022c2.131 1.421 2.841 3.907 2.131 6.038-11.721 26.639-19.18 54.699-22.022 83.824-0.355 2.486-2.486 4.262-4.973 4.262h-44.753c-2.841 0-4.973 2.131-4.973 4.973v39.070c0 2.841 2.131 4.973 4.973 4.973h44.753c2.486 0 4.617 1.776 4.973 4.262 3.197 29.125 10.656 57.185 22.377 83.469 1.066 2.131 0.355 4.973-2.131 6.393l-38.715 22.377c-2.486 1.421-3.197 4.262-1.776 6.749l19.535 33.743c1.421 2.486 4.262 3.197 6.749 1.776l39.070-22.732c2.131-1.421 4.973-0.71 6.393 1.421 7.814 10.656 16.694 21.311 26.639 30.901 11.011 11.011 22.732 20.956 34.808 29.48 2.131 1.421 2.841 4.262 1.421 6.393l-22.732 39.781c-1.421 2.486-0.71 5.328 1.776 6.749l33.743 19.535c2.486 1.421 5.328 0.71 6.749-1.776l23.087-40.136c1.066-2.131 3.197-2.841 5.683-2.131 28.060 12.076 58.961 19.535 89.507 21.311v46.884c0 2.841 2.131 4.973 4.973 4.973h39.070c2.841 0 4.973-2.131 4.973-4.973v-90.217c0-2.841-2.131-4.973-4.973-4.973h-24.863c-60.737 0-116.146-23.442-158.413-65.709s-64.999-98.742-64.999-159.123c0-60.382 23.797-117.922 66.775-161.254 42.977-43.688 99.452-67.485 159.478-67.485 122.894 0 226.253 101.938 226.253 222.346v19.535c0 2.841 3.197 3.552 6.038 3.552h85.245c2.841 0 3.552-1.066 3.552-3.552v-39.070zM859.194 608.721c0-2.841-1.066-6.038-3.552-6.038h-30.546c-2.131 0-4.262-1.066-4.617-3.197-3.907-15.983-10.656-30.546-19.535-44.043-1.421-1.776-1.066-4.262 0.71-6.038l24.508-24.508c1.776-1.776 1.776-4.973 0-6.749l-27.704-27.704c-1.776-1.776-4.973-1.776-6.749 0l-24.508 24.508c-1.776 1.776-4.262 1.776-6.038 0.71-17.404-11.721-38.36-19.535-60.026-22.377-2.486-0.355-4.973-2.486-4.973-4.973v-38.005c0-2.841-1.066-6.038-3.552-6.038h-39.070c-2.841 0-6.038 3.197-6.038 6.038v41.912c0 2.131-1.066 4.262-3.197 4.617-14.918 3.907-28.77 10.656-41.557 18.825-1.776 1.421-4.262 1.066-6.038-0.71l-24.508-24.508c-1.776-1.776-4.973-1.776-6.749 0l-27.704 27.704c-1.776 1.776-1.776 4.973 0 6.749l24.508 24.508c1.776 1.776 1.776 4.262 0.71 6.038-8.88 13.497-15.628 27.704-19.535 43.688-0.71 2.131-2.486 3.197-4.617 3.197h-43.688c-2.841 0-6.038 3.197-6.038 6.038v39.070c0 2.841 3.197 3.552 6.038 3.552h40.846c2.486 0 4.617 2.486 4.973 4.617 3.197 20.956 11.011 40.491 22.022 57.185 1.421 1.776 1.066 4.617-0.71 6.393l-24.508 24.508c-1.776 1.776-1.776 4.973 0 6.749l27.704 27.704c1.776 1.776 4.973 1.776 6.749 0l24.508-24.508c1.776-1.776 4.262-1.776 6.038-0.71 12.787 8.524 26.284 14.918 41.202 18.825 2.131 0.71 3.197 2.486 3.197 4.617v33.387c0 2.841 3.197 3.552 6.038 3.552h39.070c2.841 0 3.552-1.066 3.552-3.552v-29.836c0-2.486 2.486-4.617 4.973-4.973 21.666-2.841 42.267-11.011 59.671-22.377 1.776-1.421 4.617-1.066 6.393 0.71l24.508 24.508c1.776 1.776 4.973 1.776 6.749 0l27.704-27.704c1.776-1.776 1.776-4.973 0-6.749l-24.508-24.508c-1.776-1.776-1.776-4.262-0.71-6.038 11.011-16.694 18.825-36.584 22.022-57.54 0.355-2.486 2.486-4.617 4.973-4.617h27.704c2.841 0 3.552-1.066 3.552-3.552v-38.36z" />
<glyph unicode="&#xe94d;" glyph-name="sfdc-icon-product-industries-retail" horiz-adv-x="1023" d="M573.625 790.221c-1.066 0-2.131 0-3.197 0 21.666-24.863 34.808-57.185 34.808-92.703v-31.967c0-2.841 2.131-4.973 4.973-4.973h48.66c2.841 0 4.973 2.131 4.973 4.973v31.967c0 0.355 0 0.71 0 1.066 1.066 24.153-7.814 46.884-24.508 64.289-17.404 17.759-40.491 27.349-65.709 27.349zM376.142 660.579h51.147c2.841 0 4.973 2.131 4.973 4.973v31.967c0 35.519 13.142 67.84 34.808 92.703-1.066 0-2.131 0-3.197 0-51.147 0-92.703-41.557-92.703-93.059v-31.967c0.355-2.486 2.486-4.617 4.973-4.617zM485.894 660.579h65.709c2.841 0 4.973 2.131 4.973 4.973v31.967c0 29.125-13.497 55.409-34.453 72.458-1.776 1.421-4.262 1.421-6.393 0-20.956-17.049-34.453-43.333-34.453-72.458v-31.967c-0.355-2.841 1.776-4.973 4.617-4.973zM658.159 611.563h-47.95c-2.841 0-4.973-2.131-4.973-4.973v-71.037c0-2.841-2.131-4.973-4.973-4.973h-39.070c-2.841 0-4.973 2.131-4.973 4.973v71.037c0 2.841-2.131 4.973-4.973 4.973h-175.462c-2.841 0-4.973-2.131-4.973-4.973v-71.037c0-2.841-2.131-4.973-4.973-4.973h-39.070c-2.841 0-4.973 2.131-4.973 4.973v71.037c0 2.841-2.131 4.973-4.973 4.973h-58.606c-2.841 0-4.973-2.131-4.973-4.973v-398.873c0-2.841 2.131-4.973 4.973-4.973h398.873c2.841 0 4.973 2.131 4.973 4.973v399.229c1.066 2.486-1.066 4.617-3.907 4.617zM763.649 611.563h-47.24c-2.841 0-4.973-2.131-4.973-4.973v-398.873c0-2.841 2.131-4.973 4.973-4.973h47.24c2.841 0 4.973 2.131 4.973 4.973v399.229c0 2.486-2.131 4.617-4.973 4.617zM511.467 959.29c-282.373 0-511.467-229.095-511.467-511.467s229.095-511.467 511.467-511.467 511.467 229.095 511.467 511.467-229.095 511.467-511.467 511.467zM817.282 178.947c0-13.497-11.011-24.508-24.508-24.508h-562.614c-13.497 0-24.508 11.011-24.508 24.508v457.124c0 13.497 11.011 24.508 24.508 24.508h87.731c2.841 0 4.973 2.131 4.973 4.973v31.967c0 78.141 63.223 141.719 141.364 141.719 18.825 0 36.584-3.552 52.923-10.3 1.066-0.355 2.486-0.355 3.552 0 16.339 6.749 34.098 10.3 52.923 10.3 38.36 0 74.234-15.273 100.873-42.622 25.929-26.994 39.426-62.157 38.005-99.452v-31.256c0-2.841 2.131-4.973 4.973-4.973h75.655c13.497 0 24.508-11.011 24.508-24.508l-0.355-457.479z" />
<glyph unicode="&#xe94e;" glyph-name="sfdc-icon-product-industries-fin-serv" horiz-adv-x="1023" d="M542.724 505.007c-31.612 0-57.185-25.573-57.185-57.185s25.573-57.185 57.185-57.185c31.612 0 57.185 25.573 57.185 57.185s-25.929 57.185-57.185 57.185zM714.989 719.539l-451.441 0.355c-22.732 0-22.732-22.732-22.732-22.732l-1.066-497.97c0-24.508 22.732-22.732 22.732-22.732h452.151c0 0 22.732-2.131 22.732 22.732s0 497.615 0 497.615c0.355 21.666-22.377 22.732-22.377 22.732zM345.596 421.183v-44.753c0-2.841-2.131-4.973-4.973-4.973h-39.070c-2.841 0-4.973 2.131-4.973 4.973v44.753c-7.459 6.749-12.076 16.339-12.076 27.349 0 20.246 16.339 36.584 36.584 36.584s36.584-16.339 36.584-36.584c0-11.011-4.617-20.956-12.076-27.349zM688.705 428.287c0-2.841-2.131-4.973-4.973-4.973h-34.453c-2.131 0-4.262-1.421-4.617-3.552-2.486-8.524-5.683-16.694-9.945-24.153-1.066-1.776-0.71-4.262 0.71-6.038l24.508-24.508c1.776-1.776 1.776-4.973 0-6.749l-27.704-27.704c-1.776-1.776-4.973-1.776-6.749 0l-24.508 24.508c-1.421 1.421-3.907 1.776-6.038 0.71-7.459-4.262-15.628-7.814-24.153-9.945-2.131-0.71-3.552-2.486-3.552-4.617v-34.808c0-2.841-2.131-4.973-4.973-4.973h-39.070c-2.841 0-4.973 2.131-4.973 4.973v34.808c0 2.131-1.421 4.262-3.552 4.617-8.524 2.486-16.694 5.683-24.153 9.945-1.776 1.066-4.262 0.71-6.038-0.71l-24.508-24.508c-1.776-1.776-4.973-1.776-6.749 0l-27.704 27.704c-1.776 1.776-1.776 4.973 0 6.749l24.508 24.508c1.421 1.421 1.776 3.907 0.71 6.038-4.262 7.459-7.814 15.628-9.945 24.153-0.71 2.131-2.486 3.552-4.617 3.552h-34.453c-2.841 0-4.973 2.131-4.973 4.973v39.070c0 2.841 2.131 4.973 4.973 4.973h34.453c2.131 0 4.262 1.421 4.617 3.552 2.486 8.524 5.683 16.694 9.945 24.153 1.066 1.776 0.71 4.262-0.71 6.038l-24.508 24.508c-1.776 1.776-1.776 4.973 0 6.749l27.704 27.704c1.776 1.776 4.973 1.776 6.749 0l24.508-24.508c1.421-1.421 3.907-1.776 6.038-0.71 7.459 4.262 15.628 7.814 24.153 9.945 2.131 0.71 3.552 2.486 3.552 4.617v34.098c0 2.841 2.131 4.973 4.973 4.973h39.070c2.841 0 4.973-2.131 4.973-4.973v-34.098c0-2.131 1.421-4.262 3.552-4.617 8.524-2.486 16.694-5.683 24.153-9.945 1.776-1.066 4.262-0.71 6.038 0.71l24.508 24.508c1.776 1.776 4.973 1.776 6.749 0l27.704-27.704c1.776-1.776 1.776-4.973 0-6.749l-24.508-24.508c-1.421-1.421-1.776-3.907-0.71-6.038 4.262-7.459 7.814-15.628 9.945-24.153 0.71-2.131 2.486-3.552 4.617-3.552h34.453c2.841 0 4.973-2.131 4.973-4.973v-39.070zM511.467 959.29c-282.373 0-511.467-229.095-511.467-511.467s229.095-511.467 511.467-511.467 511.467 229.095 511.467 511.467-229.095 511.467-511.467 511.467zM827.938 543.367c0-2.486-2.131-4.617-4.617-4.617h-35.874c-2.841 0-4.973-2.131-4.973-4.973v-171.555c0-2.841 2.131-4.973 4.973-4.973h35.874c2.486 0 4.617-2.131 4.617-4.617v-80.982c0-2.486-2.131-4.617-4.617-4.617h-35.874c-2.841 0-4.973-2.131-4.973-4.973v-63.578c0-67.84-67.84-67.84-67.84-67.84h-455.348c-65.354 0-64.644 67.84-64.644 67.84v498.325c0 67.84 67.84 67.84 67.84 67.84h452.151c0 0 67.84 0.355 67.84-67.84v-62.868c0-2.841 2.131-4.973 4.973-4.973h35.874c2.486 0 4.617-2.131 4.617-4.617v-80.982z" />
<glyph unicode="&#xe94f;" glyph-name="sfdc-icon-product-industries-health" horiz-adv-x="1023" d="M511.467 959.29c-282.373 0-511.467-229.095-511.467-511.467s229.095-511.467 511.467-511.467 511.467 229.095 511.467 511.467-229.095 511.467-511.467 511.467zM793.84 393.834l-277.4-280.241c-1.776-1.776-4.973-1.776-6.749 0l-280.241 280.241c-37.65 37.65-58.606 88.086-58.606 141.719 0 57.185 23.797 110.463 66.775 149.178 33.743 30.191 77.075 48.305 122.539 50.792 55.764 2.841 108.687-16.339 148.468-54.343 1.776-1.776 4.973-1.776 6.749 0 37.294 35.163 85.955 54.343 137.457 54.343 57.185 0 110.463-23.797 149.178-66.42 30.546-33.743 48.305-77.43 50.792-122.894 2.131-57.895-18.825-112.594-58.961-152.375zM621.93 392.058l-0.71 2.131-39.070-118.632c-3.197-9.945-12.787-16.694-23.087-16.694-0.71 0-1.066 0-1.776 0-11.011 0.71-20.246 8.88-22.377 19.89l-34.808 187.538-22.732-76.72c-2.841-9.59-11.366-16.694-21.666-17.404-9.945-0.71-19.535 4.973-23.797 13.852l-25.929 55.409-22.732-47.24c-3.907-8.524-12.431-13.852-22.022-13.852h-50.436l198.549-198.549c1.776-1.776 4.973-1.776 6.749 0l192.866 194.642h-64.644c-9.59 0.71-18.825 6.749-22.377 15.628zM652.121 686.862c-38.715 0-77.43-14.918-107.266-44.398l-29.125-29.125c-1.776-1.776-4.973-1.776-6.749 0l-31.256 29.125c-29.48 29.48-68.196 44.398-107.266 44.398-38.715 0-77.43-14.918-107.266-44.398-58.606-58.606-58.961-153.44-1.421-212.756h84.179l38.36 79.917c3.907 8.524 12.431 13.852 22.022 13.852v0c9.59 0 18.114-5.683 22.022-14.207l20.601-44.043 33.032 112.594c3.197 10.656 13.497 18.114 24.508 17.404 11.366-0.71 20.601-8.88 22.732-19.89l35.874-193.931 29.836 90.928c3.197 9.59 12.076 16.339 22.377 16.694s19.535-5.683 23.442-15.273l19.535-47.95h96.61l2.131 2.131c59.316 59.316 59.316 155.216 0 214.177-29.48 29.48-68.196 44.753-106.911 44.753z" />
<glyph unicode="&#xe950;" glyph-name="sfdc-icon-phone" horiz-adv-x="1023" d="M992.744 194.575l-129.643 104.425c-29.836 23.442-72.458 25.573-101.938 2.131l-110.463-80.982c-12.787-10.656-31.967-8.524-44.753 4.262l-165.872 149.533-148.823 166.227c-12.787 12.787-12.787 29.836-4.262 44.753l80.627 110.818c23.442 29.836 21.311 72.458-2.131 102.293l-104.069 130.708c-31.967 38.36-89.152 42.622-125.381 6.393l-110.463-111.173c-16.694-17.049-25.929-40.136-25.573-63.933 10.656-217.729 108.332-424.802 252.892-569.718 144.561-145.271 350.568-243.302 567.587-253.958 23.442-2.131 46.884 8.524 63.578 25.573l110.463 111.173c33.032 25.929 39.070 73.879 13.142 106.911-4.262 5.328-9.235 10.3-14.918 14.563z" />
<glyph unicode="&#xe951;" glyph-name="sfdc-icon-headset" horiz-adv-x="1023" d="M938.4 184.275c28.415 19.89 45.109 52.212 45.109 86.665v170.489c1.066 45.464-27.704 85.955-71.037 99.807v18.114c0 220.925-179.724 400.649-400.294 400.649s-400.649-179.724-400.649-400.294v-18.47c-42.977-14.207-72.103-54.343-72.103-99.807v-170.489c0-57.895 47.24-105.135 105.135-105.135h90.217c15.273 0 28.060 12.431 28.060 28.060v324.64c0 15.273-12.431 28.060-28.060 28.060v0h-24.508v6.038c0 163.741 127.156 302.973 290.897 309.011 166.582 6.038 306.88-123.96 312.918-290.542 0-3.552 0.355-7.459 0.355-11.011v-13.142h-24.508c-15.273 0-28.060-12.431-28.060-28.060v0-324.64c0-15.273 12.431-28.060 28.060-28.060h46.884c-12.431-46.529-54.343-78.851-102.293-78.851h-74.944c-12.431 59.316-66.42 101.228-127.156 98.386-59.316-2.841-108.332-46.529-118.277-105.135-12.076-76.72 48.66-144.205 123.249-144.205 40.491 0 78.496 19.535 101.938 52.567h94.835c99.452-0.71 184.696 71.747 200.325 169.779-0.355-0.355 3.907 25.573 3.907 25.573z" />
</font>
</defs>
</svg>
