<?xml version="1.0" encoding="utf-8"?>
<!-- Generator: Adobe Illustrator 21.1.0, SVG Export Plug-In . SVG Version: 6.00 Build 0)  -->
<svg version="1.1" id="Layer_1" xmlns="http://www.w3.org/2000/svg" xmlns:xlink="http://www.w3.org/1999/xlink" x="0px" y="0px"
	 viewBox="0 0 80 79.9" style="enable-background:new 0 0 80 79.9;" xml:space="preserve">
<style type="text/css">
	.st0{fill:#717272;stroke:#717272;stroke-width:0.5;stroke-miterlimit:10;}
</style>
<g>
	<rect x="39.5" y="41.7" class="st0" width="1" height="13.8"/>
	<path class="st0" d="M49.1,30.1H27.2c-0.3,0-0.5-0.2-0.5-0.5v-8.3c0-0.3,0.2-0.5,0.5-0.5h21.9c0.1,0,0.3,0.1,0.4,0.2l3.7,4.2
		c0.2,0.2,0.2,0.5,0,0.6l-3.7,4.2C49.4,30,49.2,30.1,49.1,30.1z M27.7,29.1h21.2l3.3-3.7l-3.3-3.7H27.7V29.1z"/>
	<path class="st0" d="M52.8,42.1H30.9c-0.1,0-0.3-0.1-0.4-0.2l-3.7-4.2c-0.2-0.2-0.2-0.5,0-0.6l3.7-4.2c0.1-0.1,0.2-0.2,0.4-0.2
		h21.9c0.3,0,0.5,0.2,0.5,0.5v8.3C53.3,41.9,53.1,42.1,52.8,42.1z M31.1,41.2h21.2v-7.4H31.1l-3.3,3.7L31.1,41.2z"/>
	<rect x="34.3" y="55" class="st0" width="11.5" height="1"/>
	<rect x="39.5" y="29.6" class="st0" width="1" height="3.7"/>
</g>
</svg>
