<?xml version="1.0" encoding="utf-8"?>
<!-- Generator: Adobe Illustrator 21.1.0, SVG Export Plug-In . SVG Version: 6.00 Build 0)  -->
<svg version="1.1" id="Layer_1" xmlns="http://www.w3.org/2000/svg" xmlns:xlink="http://www.w3.org/1999/xlink" x="0px" y="0px"
	 viewBox="0 0 80 79.9" style="enable-background:new 0 0 80 79.9;" xml:space="preserve">
<style type="text/css">
	.st0{fill:#717272;stroke:#717272;stroke-width:0.5;stroke-miterlimit:10;}
</style>
<g>
	<polygon class="st0" points="37.9,37.6 37.9,37.6 37.9,37.6 	"/>
	<path class="st0" d="M32.8,33.4c0,1-0.1,2-0.2,3c-0.1,1-0.2,2-0.2,3c0,1.1,0.1,2.3,0.6,3.3c0.5,1,1.3,2,2.5,2.8l0,0l0,0
		c0.1,0.1,0.3,0.2,0.5,0.2l0,0c1.4,0.8,3,1.2,4.7,1.2c0.1,0,0.2,0,0.3,0c0.1,0,0.2,0,0.4,0c2.2,0,4.2-0.7,5.7-1.9
		c1.5-1.1,2.4-2.8,2.4-4.6l0,0l0-0.1l0,0c0-0.2,0-0.4,0-0.7c0-0.1,0-0.2,0-0.4h0l0-0.1l0-0.2c0-0.3,0-0.6-0.1-0.9l0,0c0,0,0,0,0,0
		c0,0,0,0,0,0l0,0c-0.2-0.9-0.5-1.9-0.9-2.9c-0.5-1.3-0.7-2.4-0.7-3.4c0-1.1,0.3-2.1,0.8-2.9l0.9-1.3l-1.4,0.7
		c-1.1,0.5-1.9,1.5-2.6,2.5c-0.6,1-1,2.2-1.3,3l0,0l0,0c-1-1.9-1.5-5.2-1.5-10.5l0-0.9L41.9,23c-1.1,0.9-1.9,2.1-2.4,3.4
		c-0.5,1.2-0.8,2.4-1,3.2l0,0l0,0c-0.1,0.6-0.2,1.4-0.3,2.2c-0.1,1-0.2,2.1-0.4,3.1c-0.2,1-0.4,1.8-0.7,2.3l0,0l0,0l0,0l0,0l0,0l0,0
		c-0.3-1-0.8-2.3-1.3-3.4c-0.6-1.1-1.2-2.1-1.9-2.6l0,0l0,0c-0.1-0.1-0.3-0.2-0.4-0.3l-1-0.7l0.3,1.2C32.8,31.9,32.8,32.6,32.8,33.4
		z M34.8,34.1c0.5,1.1,1,2.3,1.3,3.3c0.1,0.3,0.3,0.5,0.5,0.6l0,0c0.2,0.1,0.3,0.1,0.4,0.1c0.1,0,0.2,0,0.3-0.1l0,0l0,0
		c0.2-0.1,0.4-0.2,0.5-0.4c0.4-0.7,0.7-1.6,0.9-2.6c0.2-1,0.3-2.1,0.4-3.2c0.1-0.8,0.2-1.5,0.2-2.1c0.1-0.7,0.4-1.8,0.9-3
		c0.3-0.8,0.8-1.6,1.4-2.3c0.1,4.7,0.6,7.9,1.6,9.9c0.2,0.3,0.5,0.5,0.9,0.5l0.1,0l0,0l0,0c0.4,0,0.7-0.3,0.8-0.7
		c0.2-0.8,0.6-1.8,1.2-2.8c0.2-0.4,0.5-0.8,0.8-1.1c-0.1,0.5-0.2,1.1-0.2,1.7c0,1.2,0.3,2.4,0.8,3.8c0.4,1,0.7,1.9,0.9,2.7l0,0l0,0
		c0,0.2,0.1,0.5,0.1,0.7l0,0.2l0,0l0,0.1l0,0l0,0c0,0.1,0,0.2,0,0.3c0,0.2,0,0.4,0,0.6l0,0l0,0.1l0,0v0c0,1.5-0.8,2.8-2.1,3.9
		c-1.3,1-3.1,1.7-5.1,1.7c-0.1,0-0.2,0-0.3,0l0,0l0,0c-0.1,0-0.2,0-0.3,0c-1.5,0-3-0.4-4.2-1.1l0,0l0,0c-0.2-0.1-0.3-0.1-0.4-0.2
		c-1.1-0.7-1.8-1.5-2.2-2.3c-0.4-0.9-0.5-1.9-0.5-2.9c0-0.9,0.1-1.9,0.2-2.9c0.1-1,0.2-2.1,0.2-3.1c0-0.4,0-0.7,0-1.1
		C34.1,32.7,34.5,33.4,34.8,34.1z"/>
	<path class="st0" d="M52.1,54.4l-4.4-1.5l4.5-1.3c0.6-0.2,0.9-0.7,0.9-1.2c0-0.1,0-0.2-0.1-0.4l-0.5-1.5c-0.2-0.6-0.7-0.9-1.2-0.9
		c-0.1,0-0.2,0-0.4,0.1l0,0l-10,3l-9.7-3.3c-0.1,0-0.3-0.1-0.4-0.1c-0.5,0-1,0.3-1.2,0.9l-0.5,1.5c0,0.1-0.1,0.3-0.1,0.4
		c0,0.5,0.3,1,0.9,1.2l4.3,1.5l-4.3,1.3c-0.6,0.2-0.9,0.7-0.9,1.2c0,0.1,0,0.2,0.1,0.4l0.5,1.5c0.2,0.6,0.7,0.9,1.2,0.9
		c0.1,0,0.2,0,0.4-0.1l-0.1-0.4l0.1,0.4l9.9-3l9.9,3.4l0.2-0.4l-0.2,0.4c0.1,0,0.3,0.1,0.4,0.1c0.5,0,1-0.3,1.2-0.9l0.5-1.5
		c0-0.1,0.1-0.3,0.1-0.4C52.9,55.1,52.6,54.6,52.1,54.4z M51.2,48.4L51.2,48.4L51.2,48.4c0.2,0,0.4,0.1,0.4,0.2l0.5,1.5l0,0.1
		c0,0.1-0.1,0.3-0.2,0.3l-5.7,1.7l-3.7-1.3L51.2,48.4z M44.6,52.8l-3.7,1.1l-3.7-1.3l3.7-1.1L44.6,52.8z M30.2,50.2
		c-0.1,0-0.2-0.2-0.2-0.3l0-0.1l0.5-1.5c0-0.1,0.2-0.2,0.3-0.2l0.1,0l8.5,2.9l-3.7,1.1L30.2,50.2z M30.7,57L30.7,57L30.7,57
		c-0.2,0-0.4-0.1-0.4-0.2l-0.5-1.5l0-0.1c0-0.1,0.1-0.3,0.2-0.3l5.6-1.7l3.7,1.3L30.7,57z M52,55.7l-0.5,1.5c0,0.1-0.2,0.2-0.3,0.2
		l-0.1,0l-8.7-3l3.7-1.1l5.7,1.9c0.1,0,0.2,0.2,0.2,0.3L52,55.7z"/>
</g>
</svg>
