<?xml version="1.0" encoding="utf-8"?>
<!-- Generator: Adobe Illustrator 21.1.0, SVG Export Plug-In . SVG Version: 6.00 Build 0)  -->
<svg version="1.1" id="Layer_1" xmlns="http://www.w3.org/2000/svg" xmlns:xlink="http://www.w3.org/1999/xlink" x="0px" y="0px"
	 viewBox="0 0 80 79.9" style="enable-background:new 0 0 80 79.9;" xml:space="preserve">
<style type="text/css">
	.st0{fill:#717272;stroke:#717272;stroke-width:0.5;stroke-miterlimit:10;}
</style>
<g>
	<path class="st0" d="M47.5,57.5H32.7c-1.2,0-2.2-1-2.2-2.2v-3.8h19.3v3.8C49.8,56.5,48.8,57.5,47.5,57.5z M31.4,52.5v2.8
		c0,0.7,0.6,1.3,1.3,1.3h14.9c0.7,0,1.3-0.6,1.3-1.3v-2.8H31.4z"/>
	<path class="st0" d="M49.8,28.9H30.4v-3.2c0-1.2,1-2.2,2.2-2.2h14.9c1.2,0,2.2,1,2.2,2.2V28.9z M31.4,27.9h17.4v-2.2
		c0-0.7-0.6-1.3-1.3-1.3H32.7c-0.7,0-1.3,0.6-1.3,1.3V27.9z"/>
	<path class="st0" d="M49.8,52.5H30.4V27.9h19.3V52.5z M31.4,51.5h17.4V28.9H31.4V51.5z"/>
	<rect x="38.2" y="54.1" class="st0" width="3.7" height="1"/>
	<g>
		<rect x="38.1" y="25.8" class="st0" width="1.2" height="1"/>
		<rect x="39.9" y="25.8" class="st0" width="3.2" height="1"/>
	</g>
	<rect x="34.4" y="38.1" transform="matrix(0.7071 -0.7071 0.7071 0.7071 -16.1164 38.3457)" class="st0" width="7.7" height="1"/>
	<rect x="33.4" y="40.3" transform="matrix(0.7071 -0.7071 0.7071 0.7071 -16.9194 40.6908)" class="st0" width="14.5" height="1"/>
</g>
</svg>
