<svg xmlns="http://www.w3.org/2000/svg" viewBox="0 0 999 699.24"><title>Salesforce</title><path d="M416.22,76.76c32.22-33.57,77.07-54.39,126.68-54.39,65.95,0,123.48,36.77,154.12,91.36a213,213,0,0,1,87.11-18.51c118.94,0,215.37,97.27,215.37,217.25S903.07,529.73,784.13,529.73a213.81,213.81,0,0,1-42.42-4.23,157.44,157.44,0,0,1-206.29,64.79,179.62,179.62,0,0,1-333.91-8.13,164.77,164.77,0,0,1-34.27,3.57C75.15,585.74.5,510.32.5,417.26A168.74,168.74,0,0,1,83.88,271.33a192.86,192.86,0,0,1-16-77.06C67.91,87.25,154.79.5,261.95.5A193.79,193.79,0,0,1,416.22,76.76" transform="translate(-0.5 -0.5)" fill="#00a1e0"/><path d="M145.2,363.11c-.63,1.64.23,2,.43,2.26a58.44,58.44,0,0,0,5.71,3.44c10.19,5.41,19.81,7,29.87,7,20.49,0,33.21-10.9,33.21-28.45V347c0-16.22-14.36-22.11-27.84-26.37l-1.75-.57c-10.16-3.3-18.93-6.15-18.93-12.84v-.36c0-5.72,5.12-9.93,13.06-9.93a59.08,59.08,0,0,1,26,6.66s2,1.28,2.7-.64c.4-1,3.81-10.22,4.17-11.21a1.91,1.91,0,0,0-1-2.31,58.11,58.11,0,0,0-29.36-7.88h-2c-18.76,0-31.85,11.33-31.85,27.57v.34c0,17.12,14.44,22.67,28,26.54l2.18.67c9.86,3,18.36,5.64,18.36,12.58v.34c0,6.35-5.52,11.07-14.43,11.07a48.46,48.46,0,0,1-26.4-7.6c-1.44-.84-2.28-1.45-3.39-2.12a1.62,1.62,0,0,0-2.69.93Z" transform="translate(-0.5 -0.5)" fill="#fff"/><path d="M445.19,363.11c-.63,1.64.23,2,.43,2.26a58.44,58.44,0,0,0,5.71,3.44c10.19,5.41,19.81,7,29.87,7,20.49,0,33.21-10.9,33.21-28.45V347c0-16.22-14.36-22.11-27.84-26.37l-1.75-.57c-10.16-3.3-18.93-6.15-18.93-12.84v-.36c0-5.72,5.12-9.93,13.06-9.93a59.08,59.08,0,0,1,26,6.66s2,1.28,2.7-.64c.4-1,3.81-10.22,4.17-11.21a1.91,1.91,0,0,0-1-2.31,58.11,58.11,0,0,0-29.36-7.88h-2c-18.76,0-31.85,11.33-31.85,27.57v.34c0,17.12,14.44,22.67,28,26.54l2.18.67c9.86,3,18.37,5.64,18.37,12.58v.34c0,6.35-5.54,11.07-14.44,11.07a48.46,48.46,0,0,1-26.4-7.6c-1.44-.84-2.29-1.42-3.37-2.12a1.75,1.75,0,0,0-2.7.93Z" transform="translate(-0.5 -0.5)" fill="#fff"/><path d="M650,328.74c0,9.92-1.85,17.73-5.49,23.25s-9.05,8.13-16.65,8.13-13-2.65-16.58-8.13-5.41-13.33-5.41-23.25,1.82-17.7,5.41-23.17,9-8,16.58-8,13,2.63,16.66,8S650,318.84,650,328.74m17.11-18.39a41.17,41.17,0,0,0-7.78-14.86,37.63,37.63,0,0,0-13.13-10,47.62,47.62,0,0,0-36.67,0,37.81,37.81,0,0,0-13.15,10,41.85,41.85,0,0,0-7.78,14.86,68.74,68.74,0,0,0,0,36.77,41.43,41.43,0,0,0,7.8,14.86,36.71,36.71,0,0,0,13.13,9.9,48.67,48.67,0,0,0,36.67,0,36.71,36.71,0,0,0,13.13-9.9,41.17,41.17,0,0,0,7.78-14.86,68.36,68.36,0,0,0,0-36.77" transform="translate(-0.5 -0.5)" fill="#fff"/><path d="M807.57,357.47a1.62,1.62,0,0,0-2.18-1,39.27,39.27,0,0,1-8,2.28,61.84,61.84,0,0,1-9.38.67c-8.28,0-14.86-2.46-19.57-7.33s-7.37-12.74-7.34-23.38c0-9.69,2.36-17,6.56-22.53s10.52-8.35,19-8.35a56.85,56.85,0,0,1,18.07,2.59s1.35.58,2-1.18c1.49-4.16,2.6-7.13,4.2-11.7a1.54,1.54,0,0,0-1.05-2,66.7,66.7,0,0,0-11.41-2.87,85.62,85.62,0,0,0-12.84-.87,46.52,46.52,0,0,0-19.07,3.67,39.5,39.5,0,0,0-13.78,10,42.45,42.45,0,0,0-8.33,14.86,59.16,59.16,0,0,0-2.79,18.41c0,14.19,3.83,25.66,11.38,34.05s18.94,12.71,33.77,12.71a69.61,69.61,0,0,0,24.22-4.33,1.56,1.56,0,0,0,.7-2Z" transform="translate(-0.5 -0.5)" fill="#fff"/><path d="M837.5,319.24c.81-5.51,2.33-10.09,4.68-13.66,3.54-5.42,9-8.4,16.55-8.4s12.62,3,16.22,8.4c2.39,3.57,3.43,8.35,3.84,13.66Zm57.59-12.11a36,36,0,0,0-7.41-13.55c-3.73-4-7.37-6.82-11-8.38a42.35,42.35,0,0,0-16.59-3.36c-7.23,0-13.79,1.21-19.11,3.71a38,38,0,0,0-13.33,10.18,41.72,41.72,0,0,0-7.84,15,65,65,0,0,0-2.55,18.49,61.93,61.93,0,0,0,2.63,18.49,37.18,37.18,0,0,0,23,24.36,58.31,58.31,0,0,0,21,3.4c16.72-.06,25.53-3.79,29.16-5.79.64-.36,1.25-1,.48-2.77l-3.79-10.6a1.66,1.66,0,0,0-2.18-1c-4.14,1.54-10,4.3-23.77,4.27-9,0-15.64-2.66-19.81-6.8s-6.38-10.47-6.75-19.27l57.9.06a1.71,1.71,0,0,0,1.68-1.51,62.11,62.11,0,0,0-1.72-24.95" transform="translate(-0.5 -0.5)" fill="#fff"/><path d="M373.76,319.24c.83-5.51,2.33-10.09,4.68-13.66,3.54-5.42,9-8.4,16.55-8.4s12.62,3,16.24,8.4c2.38,3.57,3.42,8.35,3.83,13.66Zm57.58-12.11a36,36,0,0,0-7.4-13.55c-3.73-4-7.37-6.82-11-8.38a42.35,42.35,0,0,0-16.59-3.36c-7.22,0-13.79,1.21-19.11,3.71a38,38,0,0,0-13.33,10.18,41.72,41.72,0,0,0-7.84,15,65.5,65.5,0,0,0-2.55,18.49,61.93,61.93,0,0,0,2.63,18.49,37.18,37.18,0,0,0,23,24.36,58.31,58.31,0,0,0,21,3.4c16.72-.06,25.53-3.79,29.16-5.79.64-.36,1.25-1,.48-2.77L426,356.32a1.68,1.68,0,0,0-2.19-1c-4.14,1.54-10,4.3-23.78,4.27-9,0-15.63-2.66-19.8-6.8s-6.38-10.47-6.75-19.27l57.91.06a1.71,1.71,0,0,0,1.68-1.51,62,62,0,0,0-1.74-24.95" transform="translate(-0.5 -0.5)" fill="#fff"/><path d="M248.6,357.15a11.73,11.73,0,0,1-3.34-3.43,14,14,0,0,1-1.72-7.53c0-5.09,1.68-8.75,5.17-11.21,0,0,5-4.34,16.79-4.18a118.76,118.76,0,0,1,15.71,1.34v26.33h0a117.63,117.63,0,0,1-15.64,2.08c-11.78.71-17-3.4-17-3.39m23-40.69c-2.35-.17-5.39-.27-9-.27A54.92,54.92,0,0,0,248.34,318a37.18,37.18,0,0,0-12.1,5.61,27,27,0,0,0-11.48,22.9,30.25,30.25,0,0,0,2.65,13.22,23.83,23.83,0,0,0,7.56,9.05,31.65,31.65,0,0,0,11.8,5.11,69.17,69.17,0,0,0,15.33,1.57A104.54,104.54,0,0,0,279.68,374c5.68-1,12.65-2.38,14.59-2.82s4.06-1,4.06-1a1.82,1.82,0,0,0,1.32-1.89l0-53c0-11.61-3.1-20.22-9.21-25.56s-15-8-26.6-8a95.27,95.27,0,0,0-15.51,1.44s-12.65,2.45-17.86,6.52a1.81,1.81,0,0,0-.51,2.31l4.1,11a1.46,1.46,0,0,0,1.89.94,7.46,7.46,0,0,0,1-.47c11.14-6.06,25.23-5.88,25.23-5.88,6.26,0,11.07,1.25,14.32,3.74s4.77,6.08,4.77,13.79v2.45c-5-.71-9.55-1.12-9.55-1.12" transform="translate(-0.5 -0.5)" fill="#fff"/><path d="M738.67,286.63a1.56,1.56,0,0,0-.87-2.08,50.23,50.23,0,0,0-9.71-1.67c-7.27-.44-11.31.78-14.93,2.41s-7.57,4.24-9.79,7.21v-7a1.68,1.68,0,0,0-1.67-1.76H686.87a1.68,1.68,0,0,0-1.67,1.76v86.37A1.77,1.77,0,0,0,687,373.6h15.21a1.76,1.76,0,0,0,1.75-1.76V328.68c0-5.79.64-11.57,1.92-15.2a21.87,21.87,0,0,1,5.07-8.52,17.78,17.78,0,0,1,7.16-4.3,27.91,27.91,0,0,1,7.77-1.1,32.49,32.49,0,0,1,6.36.78c1.11.13,1.74-.55,2.11-1.57,1-2.65,3.81-10.57,4.35-12.15" transform="translate(-0.5 -0.5)" fill="#fff"/><path d="M595.87,246.6a49.76,49.76,0,0,0-5.72-1.37,45.33,45.33,0,0,0-7.87-.6c-10.47,0-18.73,3-24.52,8.79s-9.68,14.64-11.64,26.27l-.71,3.91H532.26a2,2,0,0,0-1.94,1.68l-2.15,12.05c-.16,1.14.34,1.86,1.88,1.86h12.79l-13,72.46A89.67,89.67,0,0,1,526.4,386a29.16,29.16,0,0,1-4,8.24,10.77,10.77,0,0,1-5.29,4.08,21.54,21.54,0,0,1-6.82,1,25.58,25.58,0,0,1-4.64-.51,13.72,13.72,0,0,1-3.13-1,1.6,1.6,0,0,0-2.09.92c-.47,1.24-3.89,10.62-4.3,11.77a1.75,1.75,0,0,0,.9,2.32,47.37,47.37,0,0,0,5.29,1.55,35.12,35.12,0,0,0,8.48.8A42.43,42.43,0,0,0,525,412.89a26.84,26.84,0,0,0,10.7-7.46,38.2,38.2,0,0,0,7.51-13A110,110,0,0,0,548.29,373l13-73.81h19.07a2,2,0,0,0,1.94-1.69l2.16-12c.14-1.15-.34-1.86-1.89-1.86H564.1a80.38,80.38,0,0,1,3.06-13.06,17.09,17.09,0,0,1,4.06-6.18,12.15,12.15,0,0,1,4.85-3,20.14,20.14,0,0,1,6.22-.88,24.29,24.29,0,0,1,4.75.47c1.79.38,2.49.58,3,.73,1.89.57,2.15,0,2.52-.9l4.43-12.15a1.55,1.55,0,0,0-1.07-2" transform="translate(-0.5 -0.5)" fill="#fff"/><path d="M337.19,371.83a1.68,1.68,0,0,1-1.67,1.75H320.17a1.67,1.67,0,0,1-1.65-1.75V248.25a1.67,1.67,0,0,1,1.65-1.75h15.35a1.68,1.68,0,0,1,1.67,1.75Z" transform="translate(-0.5 -0.5)" fill="#fff"/></svg>