<svg xmlns="http://www.w3.org/2000/svg" viewBox="0 0 726.85 251.98">
  <path d="M149.81,27.48a63.09,63.09,0,0,1,45.65-19.6A63.73,63.73,0,0,1,251,40.81a76.75,76.75,0,0,1,31.39-6.67c42.86,0,77.61,35.05,77.61,78.29s-34.75,78.29-77.61,78.29a77.28,77.28,0,0,1-15.29-1.52,56.73,56.73,0,0,1-74.34,23.34,64.73,64.73,0,0,1-120.33-2.93,59.66,59.66,0,0,1-12.35,1.29C26.9,210.9,0,183.72,0,150.19A60.8,60.8,0,0,1,30,97.6,69.91,69.91,0,0,1,149.81,27.48Z" fill="#00a1df"/>
  <path d="M52.14,130.67c-.23.59.08.71.15.82a21.67,21.67,0,0,0,12.82,3.75c7.38,0,12-3.93,12-10.25v-.13c0-5.85-5.18-8-10-9.5l-.63-.21c-3.66-1.19-6.82-2.21-6.82-4.63v-.12c0-2.06,1.85-3.58,4.71-3.58a21.3,21.3,0,0,1,9.38,2.4s.72.46,1-.23c.14-.37,1.37-3.68,1.5-4a.69.69,0,0,0-.36-.83,20.94,20.94,0,0,0-10.58-2.84H64.5c-6.76,0-11.48,4.09-11.48,9.94v.13c0,6.16,5.2,8.17,10.08,9.56l.78.24c3.55,1.09,6.62,2,6.62,4.53v.13c0,2.29-2,4-5.2,4a17.43,17.43,0,0,1-9.51-2.74c-.52-.3-.82-.52-1.22-.77a.59.59,0,0,0-1,.33Z" fill="#fff"/>
  <path d="M160.25,130.67c-.23.59.08.71.15.82a21.67,21.67,0,0,0,12.82,3.75c7.39,0,12-3.93,12-10.25v-.13c0-5.85-5.18-8-10-9.5l-.63-.21c-3.66-1.19-6.82-2.21-6.82-4.63v-.12c0-2.06,1.85-3.58,4.71-3.58a21.3,21.3,0,0,1,9.38,2.4s.72.46,1-.23l1.5-4a.69.69,0,0,0-.36-.83,20.94,20.94,0,0,0-10.58-2.84h-.74c-6.76,0-11.48,4.09-11.48,9.94v.13c0,6.16,5.2,8.17,10.08,9.56l.78.24c3.55,1.09,6.62,2,6.62,4.53v.13c0,2.29-2,4-5.2,4a17.43,17.43,0,0,1-9.51-2.74c-.52-.3-.82-.51-1.22-.77a.63.63,0,0,0-1,.33Z" fill="#fff"/>
  <path d="M240.22,111.66a14.9,14.9,0,0,0-2.81-5.36,13.56,13.56,0,0,0-4.73-3.6,17.15,17.15,0,0,0-13.22,0,13.56,13.56,0,0,0-4.74,3.6,14.91,14.91,0,0,0-2.8,5.35,24.66,24.66,0,0,0,0,13.25,14.9,14.9,0,0,0,2.81,5.36,13.26,13.26,0,0,0,4.74,3.57,17.52,17.52,0,0,0,13.21,0,13.25,13.25,0,0,0,4.74-3.57,14.9,14.9,0,0,0,2.81-5.36,24.66,24.66,0,0,0,0-13.25m-6.17,6.62c0,3.57-.67,6.39-2,8.38a6.63,6.63,0,0,1-6,2.93,6.55,6.55,0,0,1-6-2.93c-1.29-2-1.95-4.81-1.95-8.38s.66-6.38,1.95-8.35,3.23-2.9,6-2.9a6.65,6.65,0,0,1,6,2.9c1.31,2,2,4.78,2,8.35" fill="#fff"/>
  <path d="M290.83,128.64a.58.58,0,0,0-.79-.37,14.18,14.18,0,0,1-2.87.82,22,22,0,0,1-3.38.24,9.39,9.39,0,0,1-7-2.64c-1.7-1.76-2.66-4.59-2.65-8.43a13.09,13.09,0,0,1,2.37-8.12c1.5-2,3.79-3,6.84-3a20.64,20.64,0,0,1,6.52.93s.48.21.71-.43c.54-1.5.94-2.56,1.52-4.21a.56.56,0,0,0-.38-.73,24.29,24.29,0,0,0-4.11-1,31.24,31.24,0,0,0-4.62-.31,16.83,16.83,0,0,0-6.87,1.32,14.25,14.25,0,0,0-5,3.6,15.19,15.19,0,0,0-3,5.35,21.26,21.26,0,0,0-1,6.64c0,5.11,1.38,9.24,4.1,12.27s6.83,4.58,12.17,4.58a25.11,25.11,0,0,0,8.73-1.56.56.56,0,0,0,.25-.73Z" fill="#fff" fill-rule="evenodd"/>
  <path d="M322.37,110.5a13,13,0,0,0-2.67-4.89,12.18,12.18,0,0,0-4-3,15.21,15.21,0,0,0-6-1.21,16.35,16.35,0,0,0-6.89,1.34,13.74,13.74,0,0,0-4.8,3.67,15.11,15.11,0,0,0-2.83,5.42,23.49,23.49,0,0,0-.91,6.66,22.37,22.37,0,0,0,.95,6.66,13.37,13.37,0,0,0,8.27,8.78,20.9,20.9,0,0,0,7.57,1.23c6,0,9.2-1.36,10.51-2.09.23-.13.45-.35.18-1l-1.37-3.82a.6.6,0,0,0-.79-.36,20.09,20.09,0,0,1-8.57,1.54c-3.23,0-5.63-1-7.14-2.46s-2.3-3.77-2.43-6.94l20.86,0a.61.61,0,0,0,.61-.54A22.28,22.28,0,0,0,322.37,110.5Zm-20.75,4.36a12.17,12.17,0,0,1,1.69-4.92,6.65,6.65,0,0,1,6-3,6.48,6.48,0,0,1,5.85,3,10.32,10.32,0,0,1,1.38,4.92Z" fill="#fff" fill-rule="evenodd"/>
  <path d="M155.26,110.5a13,13,0,0,0-2.67-4.89,12.18,12.18,0,0,0-4-3,15.21,15.21,0,0,0-6-1.21,16.35,16.35,0,0,0-6.89,1.34,13.75,13.75,0,0,0-4.8,3.67,15.1,15.1,0,0,0-2.83,5.42,23.49,23.49,0,0,0-.91,6.66,22.37,22.37,0,0,0,.95,6.66,13.38,13.38,0,0,0,8.27,8.78,20.9,20.9,0,0,0,7.57,1.23c6,0,9.2-1.36,10.51-2.09.23-.13.45-.35.18-1l-1.36-3.82a.6.6,0,0,0-.79-.36,20.09,20.09,0,0,1-8.57,1.54c-3.23,0-5.63-1-7.14-2.46s-2.3-3.77-2.43-6.94l20.86,0a.61.61,0,0,0,.61-.54A22.28,22.28,0,0,0,155.26,110.5Zm-20.75,4.36a12.17,12.17,0,0,1,1.69-4.92,6.65,6.65,0,0,1,6-3,6.48,6.48,0,0,1,5.85,3,10.33,10.33,0,0,1,1.38,4.92Z" fill="#fff" fill-rule="evenodd"/>
  <path d="M97.71,113.86c-.85-.06-1.94-.09-3.26-.09a19.77,19.77,0,0,0-5.14.66,13.47,13.47,0,0,0-4.36,2,9.75,9.75,0,0,0-4.14,8.25,10.9,10.9,0,0,0,1,4.76,8.65,8.65,0,0,0,2.72,3.27,11.48,11.48,0,0,0,4.25,1.84,25,25,0,0,0,5.52.56,38.07,38.07,0,0,0,6.34-.53c2-.35,4.56-.86,5.25-1s1.46-.37,1.46-.37a.66.66,0,0,0,.48-.68V113.45c0-4.19-1.12-7.29-3.32-9.21s-5.41-2.88-9.58-2.88a34.34,34.34,0,0,0-5.59.52s-4.55.88-6.43,2.35a.65.65,0,0,0-.19.83l1.48,4a.53.53,0,0,0,.68.34,2.72,2.72,0,0,0,.34-.17,21.22,21.22,0,0,1,9.09-2.12,8.41,8.41,0,0,1,5.16,1.35c1.14.87,1.72,2.19,1.72,5v.88C99.36,114,97.71,113.86,97.71,113.86Zm-8.3,14.66a4.13,4.13,0,0,1-1.2-1.24,5,5,0,0,1-.62-2.71,4.58,4.58,0,0,1,1.86-4s1.8-1.56,6.05-1.51a42.48,42.48,0,0,1,5.67.48V129h0a42.41,42.41,0,0,1-5.64.75C91.28,130,89.39,128.52,89.41,128.52Z" fill="#fff"/>
  <path d="M266,103.11a.57.57,0,0,0-.31-.75,18.24,18.24,0,0,0-3.5-.6,10.36,10.36,0,0,0-5.38.87,9.39,9.39,0,0,0-3.53,2.6v-2.54a.6.6,0,0,0-.6-.63h-5.35a.6.6,0,0,0-.6.63v31.13a.63.63,0,0,0,.63.63h5.48a.63.63,0,0,0,.63-.63V118.26a18.34,18.34,0,0,1,.69-5.48,7.84,7.84,0,0,1,1.83-3.07,6.36,6.36,0,0,1,2.58-1.55,10.09,10.09,0,0,1,2.8-.39,11.83,11.83,0,0,1,2.29.28c.4,0,.63-.2.76-.56C264.8,106.54,265.81,103.68,266,103.11Z" fill="#fff" fill-rule="evenodd"/>
  <path d="M214.55,88.69a17.17,17.17,0,0,0-2.06-.49,16.17,16.17,0,0,0-2.84-.22c-3.77,0-6.75,1.07-8.84,3.17s-3.49,5.27-4.19,9.46l-.26,1.41h-4.74a.7.7,0,0,0-.7.61l-.78,4.34c-.05.42.12.67.68.67h4.61l-4.68,26.12a32.59,32.59,0,0,1-1.25,5.14,10.58,10.58,0,0,1-1.46,3,3.86,3.86,0,0,1-1.91,1.47,7.76,7.76,0,0,1-2.45.35,9.52,9.52,0,0,1-1.67-.18,5,5,0,0,1-1.13-.37.57.57,0,0,0-.75.33c-.17.44-1.4,3.82-1.55,4.24a.62.62,0,0,0,.32.83,15.75,15.75,0,0,0,1.91.56,12.61,12.61,0,0,0,3.06.29,15.26,15.26,0,0,0,5.12-.79,9.59,9.59,0,0,0,3.86-2.69,13.89,13.89,0,0,0,2.71-4.67,39.82,39.82,0,0,0,1.83-7l4.7-26.6H209a.7.7,0,0,0,.7-.61l.78-4.34c.05-.42-.12-.67-.68-.67H203.1a28.52,28.52,0,0,1,1.1-4.71,6,6,0,0,1,1.46-2.23A4.35,4.35,0,0,1,207.41,94a7.3,7.3,0,0,1,2.24-.32,8.57,8.57,0,0,1,1.71.17c.65.14.9.21,1.07.26.68.21.77,0,.91-.32l1.6-4.38A.56.56,0,0,0,214.55,88.69Z" fill="#fff" fill-rule="evenodd"/>
  <path d="M121.33,133.82a.6.6,0,0,1-.6.63H115.2a.6.6,0,0,1-.6-.63V89.28a.6.6,0,0,1,.6-.63h5.53a.6.6,0,0,1,.6.63Z" fill="#fff" fill-rule="evenodd"/>
  <path d="M429,111.45a29.23,29.23,0,0,1-2.52,12.33,20.39,20.39,0,0,1-7.33,8.69,20,20,0,0,1-11.29,3.19,21.7,21.7,0,0,1-15-5.67v26.37h-7.65V98.85a85.72,85.72,0,0,0-.63-10.26h7.29a67.83,67.83,0,0,1,.63,7h.18a16.48,16.48,0,0,1,6.3-6,20.14,20.14,0,0,1,9.9-2.25A18.64,18.64,0,0,1,420,90.53a19.73,19.73,0,0,1,6.79,8.64A31.36,31.36,0,0,1,429,111.45Zm-7.92,0q0-8.28-3.65-13.14a11.94,11.94,0,0,0-10.12-4.86,14.51,14.51,0,0,0-7.56,2,13.47,13.47,0,0,0-5.13,5.4,15.79,15.79,0,0,0-1.8,7.47v15.21a22.3,22.3,0,0,0,6.25,4.59,16.83,16.83,0,0,0,7.15,1.44q7.2,0,11-5T421.13,111.45Z" fill="#1a437f"/>
  <path d="M446.69,70.69v63.72H439V70.69Z" fill="#1a437f"/>
  <path d="M456.86,121.89q0-8.91,6.44-12.37t19.4-3.46q3.15,0,4.77.09v-2.61q0-5.13-2.79-7.65t-8.55-2.52a26.43,26.43,0,0,0-13.77,3.87l-2.7-5.13a31.64,31.64,0,0,1,16.92-4.77q9.63,0,14.08,4.5t4.45,13.68v18.72a84.77,84.77,0,0,0,.63,10.17h-7a42,42,0,0,1-.63-6.21h-.27a16.4,16.4,0,0,1-6.35,5.58,22.28,22.28,0,0,1-9.85,1.89q-6.66,0-10.71-3.55T456.86,121.89Zm30.6-4.41v-5.94l-4-.09a51.11,51.11,0,0,0-10.75.9,11,11,0,0,0-5.94,3.06,8.72,8.72,0,0,0-1.93,6,7.77,7.77,0,0,0,2.34,6.08,9.31,9.31,0,0,0,6.48,2.12,14.52,14.52,0,0,0,7.47-1.85,12.88,12.88,0,0,0,4.77-4.64A11.17,11.17,0,0,0,487.46,117.48Z" fill="#1a437f"/>
  <path d="M518.42,88.6h12.15v5.85H518.42v27.63q0,7.38,6.75,7.38a15.37,15.37,0,0,0,4.5-.63l1.17,5.67a19.86,19.86,0,0,1-7.11,1.17q-6,0-9.5-3.37t-3.46-9.59V94.44h-8.1v-5l8-.9V77.35l7.74-2.7Z" fill="#1a437f"/>
  <path d="M567.38,70.6l-1.71,5.49a22.66,22.66,0,0,0-5.58-.54q-8.46.09-8.46,9.27V88.6h11.52v5.85H551.63v40H544v-40h-8V89.58l8-1v-4q0-7.29,3.87-11.21t11.52-4A25.85,25.85,0,0,1,567.38,70.6Z" fill="#1a437f"/>
  <path d="M613.45,111.36A28.09,28.09,0,0,1,610.71,124a20.15,20.15,0,0,1-7.92,8.6,26.29,26.29,0,0,1-24.71,0,20.11,20.11,0,0,1-7.92-8.6,28.19,28.19,0,0,1-2.7-12.6q0-11,6-17.5t16.92-6.53a24.36,24.36,0,0,1,12.46,3,19.75,19.75,0,0,1,7.88,8.42A27.84,27.84,0,0,1,613.45,111.36Zm-38.07,0q0,8.19,3.74,13.18t11.29,5q7.65,0,11.43-5t3.78-13.18q0-8.19-3.78-13t-11.43-4.86q-7.65,0-11.34,4.86T575.38,111.36Z" fill="#1a437f"/>
  <path d="M623,98.85a85.62,85.62,0,0,0-.63-10.26h7.29a72.1,72.1,0,0,1,.63,7.29h.18q4-8.55,14.4-8.55a22,22,0,0,1,2.61.27L647,94.17a15.69,15.69,0,0,0-2.79-.18q-6.57,0-10.08,4.41t-3.51,11.43v24.57H623Z" fill="#1a437f"/>
  <path d="M656.2,98.85a85.62,85.62,0,0,0-.63-10.26h7.29a49.15,49.15,0,0,1,.63,6.48h.18a16.34,16.34,0,0,1,6.08-5.58,18.42,18.42,0,0,1,9-2.16,16.82,16.82,0,0,1,9.54,2.48,14.31,14.31,0,0,1,5.4,6.79h.18a17.64,17.64,0,0,1,6.39-6.79A18.29,18.29,0,0,1,710,87.33a16.91,16.91,0,0,1,9.45,2.48,15,15,0,0,1,5.58,6.48,21.18,21.18,0,0,1,1.8,8.78v29.34H719.2V106.14a15,15,0,0,0-2.57-8.91q-2.56-3.6-8.24-3.6a11.76,11.76,0,0,0-7.11,2.16,13.47,13.47,0,0,0-4.5,5.76,19.56,19.56,0,0,0-1.53,7.74v25.11h-7.65V106A14.43,14.43,0,0,0,685,97.19q-2.61-3.56-8.19-3.55a11.7,11.7,0,0,0-9.45,4.18,15.5,15.5,0,0,0-3.51,10.3v26.28H656.2Z" fill="#1a437f"/>
</svg>
